%TF.GenerationSoftware,KiCad,Pcbnew,9.0.8+dfsg-1*%
%TF.CreationDate,2026-08-19T01:32:43+05:30*%
%TF.ProjectId,hey,6865792e-6b69-4636-9164-5f7063625858,rev?*%
%TF.SameCoordinates,Original*%
%TF.FileFunction,Copper,L2,Bot*%
%TF.FilePolarity,Positive*%
%FSLAX46Y46*%
G04 Gerber Fmt 4.6, Leading zero omitted, Abs format (unit mm)*
G04 Created by KiCad (PCBNEW 9.0.8+dfsg-1) date 2026-08-19 01:32:43*
%MOMM*%
%LPD*%
G01*
G04 APERTURE LIST*
%TA.AperFunction,ComponentPad*%
%ADD10O,1.200000X1.800000*%
%TD*%
%TA.AperFunction,ComponentPad*%
%ADD11O,1.100000X2.000000*%
%TD*%
%TA.AperFunction,SMDPad,CuDef*%
%ADD12R,0.500000X0.500000*%
%TD*%
%TA.AperFunction,ViaPad*%
%ADD13C,0.450000*%
%TD*%
%TA.AperFunction,ViaPad*%
%ADD14C,0.800000*%
%TD*%
%TA.AperFunction,Conductor*%
%ADD15C,0.127000*%
%TD*%
%TA.AperFunction,Conductor*%
%ADD16C,0.508000*%
%TD*%
%TA.AperFunction,Conductor*%
%ADD17C,0.152400*%
%TD*%
%TA.AperFunction,Conductor*%
%ADD18C,0.177800*%
%TD*%
%TA.AperFunction,Conductor*%
%ADD19C,0.228600*%
%TD*%
%TA.AperFunction,Conductor*%
%ADD20C,0.381000*%
%TD*%
G04 APERTURE END LIST*
D10*
%TO.P,J1,S2*%
%TO.N,GND*%
X144119120Y-126179720D03*
%TO.P,J1,S3*%
X152759080Y-126179720D03*
D11*
%TO.P,J1,S4*%
X152759080Y-121979810D03*
%TO.P,J1,S1*%
X144119120Y-121979940D03*
%TD*%
D12*
%TO.P,C11,1*%
%TO.N,+3.3V*%
X144248100Y-112623600D03*
%TO.P,C11,2*%
%TO.N,GND*%
X145248100Y-112623600D03*
%TD*%
%TO.P,C10,1*%
%TO.N,+3.3V*%
X144264100Y-109829600D03*
%TO.P,C10,2*%
%TO.N,GND*%
X145264100Y-109829600D03*
%TD*%
%TO.P,C6,1*%
%TO.N,+3.3V*%
X153384100Y-108813600D03*
%TO.P,C6,2*%
%TO.N,GND*%
X152384100Y-108813600D03*
%TD*%
%TO.P,C5,1*%
%TO.N,+3.3V*%
X153392100Y-112242600D03*
%TO.P,C5,2*%
%TO.N,GND*%
X152392100Y-112242600D03*
%TD*%
D13*
%TO.N,GND*%
X137093100Y-83243600D03*
X137093100Y-84704100D03*
X137093100Y-89466600D03*
%TO.N,+5V*%
X155215790Y-103406030D03*
%TO.N,TX*%
X153773100Y-103479600D03*
%TO.N,+5V*%
X155932100Y-102717600D03*
%TO.N,GND*%
X154051720Y-122555200D03*
X154238100Y-126550600D03*
X151190100Y-126550600D03*
X145729100Y-126550600D03*
X142935100Y-126550600D03*
X144078100Y-124010600D03*
X155043100Y-105511600D03*
X139168100Y-98907600D03*
X140311100Y-98907600D03*
%TO.N,+5V*%
X142724100Y-114782600D03*
%TO.N,GND*%
X160080100Y-93657600D03*
X160080100Y-95118100D03*
X160080100Y-96578600D03*
X160164100Y-99012100D03*
X160164100Y-100472600D03*
X160164100Y-97551600D03*
X137093100Y-92387600D03*
X137093100Y-90927100D03*
X136966100Y-100642600D03*
X136966100Y-99182100D03*
X136966100Y-97721600D03*
X137093100Y-104833600D03*
X137093100Y-103373100D03*
X137093100Y-101912600D03*
X136966100Y-109786600D03*
X136966100Y-108326100D03*
X136966100Y-106865600D03*
X136966100Y-114104600D03*
X136966100Y-112644100D03*
X136966100Y-111183600D03*
X137220100Y-123629600D03*
X137220100Y-122169100D03*
X137220100Y-120708600D03*
X137220100Y-127820600D03*
X137220100Y-126360100D03*
X137220100Y-124899600D03*
X159699100Y-124645600D03*
X159699100Y-123185100D03*
X159699100Y-121724600D03*
X159826100Y-118803600D03*
X159826100Y-117343100D03*
X159826100Y-115882600D03*
X159953100Y-112326600D03*
X159953100Y-110866100D03*
X159953100Y-109405600D03*
X159953100Y-107246600D03*
X159953100Y-105786100D03*
X159953100Y-104325600D03*
X160080100Y-90482600D03*
X160080100Y-89022100D03*
X160080100Y-87561600D03*
X160080100Y-85275600D03*
X160080100Y-83815100D03*
X160080100Y-82354600D03*
X155848100Y-81592600D03*
X157308600Y-81592600D03*
X158769100Y-81592600D03*
X151149100Y-81592600D03*
X152609600Y-81592600D03*
X154070100Y-81592600D03*
X146577100Y-81592600D03*
X148037600Y-81592600D03*
X149498100Y-81592600D03*
X142005100Y-81592600D03*
X143465600Y-81592600D03*
X144926100Y-81592600D03*
X140354100Y-81592600D03*
X138893600Y-81592600D03*
X137433100Y-81592600D03*
%TO.N,1.1V*%
X145942100Y-115882600D03*
%TO.N,RST*%
X137390100Y-115290600D03*
D14*
%TO.N,GND*%
X141073100Y-119608600D03*
%TO.N,+5V*%
X142343100Y-118846600D03*
D13*
%TO.N,+3.3V*%
X144248100Y-113440000D03*
%TO.N,1.1V*%
X146280100Y-111988600D03*
%TO.N,GND*%
X147677100Y-111585800D03*
%TO.N,RST*%
X146534100Y-108432600D03*
%TO.N,NetU3_27*%
X146440790Y-107744600D03*
%TO.N,NetU3_28*%
X145137100Y-104368600D03*
%TO.N,GND*%
X149963100Y-110401100D03*
X149963100Y-109194600D03*
%TO.N,TX*%
X159107100Y-103225600D03*
%TO.N,RX*%
X157456100Y-103352600D03*
X154916100Y-104368600D03*
%TO.N,CS*%
X158218100Y-108305600D03*
%TO.N,IO1*%
X157583100Y-109829600D03*
%TO.N,+3.3V*%
X155805100Y-117322600D03*
%TO.N,BOOT*%
X155551100Y-120497600D03*
%TO.N,+3.3V*%
X149709100Y-116433600D03*
%TO.N,NetJ1_B5*%
X157456100Y-119735600D03*
X150217100Y-119735600D03*
%TO.N,NetJ1_A5*%
X146788100Y-119608600D03*
%TO.N,GND*%
X146192700Y-100304600D03*
D14*
X139930100Y-115544600D03*
X139930100Y-116814600D03*
D13*
%TO.N,+3.3V*%
X153392100Y-113004600D03*
%TO.N,1.1V*%
X149201100Y-113131600D03*
%TO.N,GND*%
X152884100Y-119227600D03*
%TO.N,NetU3_27*%
X154662100Y-89509600D03*
X152376100Y-91922600D03*
X145518100Y-99796600D03*
%TO.N,GND*%
X145264100Y-102590600D03*
%TO.N,NetU3_29*%
X144883100Y-100177600D03*
%TO.N,NetU3_30*%
X146788100Y-89763600D03*
X144883100Y-89763600D03*
%TO.N,GND*%
X144384200Y-103733600D03*
X145899100Y-103733600D03*
%TO.N,NetU3_29*%
X144502100Y-106908600D03*
%TO.N,NetU3_28*%
X145645100Y-107035600D03*
%TO.N,+3.3V*%
X144232110Y-109211280D03*
%TO.N,GND*%
X145264100Y-119100600D03*
X143740100Y-119100600D03*
X151360100Y-119227600D03*
X149836100Y-119227600D03*
%TO.N,NetJ1_A5*%
X141962100Y-123037600D03*
X140057100Y-123037600D03*
%TO.N,IO1*%
X153773100Y-114274600D03*
%TO.N,+3.3V*%
X153392100Y-109448600D03*
%TO.N,GND*%
X149963100Y-111607600D03*
X148820100Y-109194600D03*
X148820100Y-110401100D03*
X148820100Y-111607600D03*
X147677100Y-110401100D03*
X147677100Y-109194600D03*
%TO.N,CS*%
X154916100Y-108940600D03*
%TO.N,GND*%
X148312100Y-100304600D03*
X151487100Y-103733600D03*
X151487100Y-101955600D03*
X151233100Y-100431600D03*
X137093100Y-86164600D03*
%TD*%
D15*
%TO.N,RX*%
X154535100Y-103987600D02*
X154535100Y-102844600D01*
X155208200Y-102171500D02*
X156275000Y-102171500D01*
X154535100Y-102844600D02*
X155208200Y-102171500D01*
X154535100Y-103987600D02*
X154916100Y-104368600D01*
D16*
%TO.N,+5V*%
X155904220Y-102717600D02*
X155932100Y-102717600D01*
X155215790Y-103406030D02*
X155904220Y-102717600D01*
X155215790Y-103406030D02*
X155604530Y-103406030D01*
D15*
%TO.N,TX*%
X154789100Y-101828600D02*
X157710100Y-101828600D01*
X153773100Y-103479600D02*
X153773100Y-102844600D01*
X153773100Y-102844600D02*
X154789100Y-101828600D01*
D16*
%TO.N,+5V*%
X155604530Y-103406030D02*
X159361100Y-107162600D01*
D15*
%TO.N,RX*%
X156275000Y-102171500D02*
X157456100Y-103352600D01*
D16*
%TO.N,+5V*%
X142676120Y-114782600D02*
X146661100Y-114782600D01*
D17*
%TO.N,1.1V*%
X145942100Y-115882600D02*
X146026100Y-115798600D01*
D16*
%TO.N,+5V*%
X147423100Y-114020600D02*
X151360100Y-114020600D01*
X146661100Y-114782600D02*
X147423100Y-114020600D01*
D17*
%TO.N,1.1V*%
X143232100Y-118592600D02*
X145942100Y-115882600D01*
X143232100Y-119608600D02*
X143232100Y-118592600D01*
X142978100Y-119862600D02*
X143232100Y-119608600D01*
X142216100Y-119862600D02*
X142978100Y-119862600D01*
X141454100Y-119100600D02*
X142216100Y-119862600D01*
X141454100Y-119100600D02*
X141454100Y-114782600D01*
X141454100Y-114782600D02*
X142216100Y-114020600D01*
X142216100Y-114020600D02*
X146026100Y-114020600D01*
X146026100Y-114020600D02*
X146280100Y-113766600D01*
X146280100Y-113766600D02*
X146280100Y-111988600D01*
D18*
%TO.N,RST*%
X137390100Y-115290600D02*
X137390100Y-114274600D01*
X137390100Y-114274600D02*
X143324600Y-108340100D01*
X143324600Y-108340100D02*
X144846270Y-108340100D01*
D16*
%TO.N,+5V*%
X142343100Y-118846600D02*
X142343100Y-115115620D01*
X142343100Y-115115620D02*
X142676120Y-114782600D01*
D19*
%TO.N,+3.3V*%
X144248100Y-113440000D02*
X144248100Y-112623600D01*
D17*
%TO.N,1.1V*%
X146280100Y-111988600D02*
X147169100Y-111988600D01*
X148312100Y-113131600D02*
X149201100Y-113131600D01*
X147169100Y-111988600D02*
X148312100Y-113131600D01*
D20*
%TO.N,GND*%
X146777780Y-111089280D02*
X147161910Y-111089280D01*
X147161910Y-111089280D02*
X147658430Y-111585800D01*
X146423100Y-110734600D02*
X146777780Y-111089280D01*
X147658430Y-111585800D02*
X147677100Y-111585800D01*
X145248100Y-112623600D02*
X145248100Y-110957780D01*
X145248100Y-110957780D02*
X145471290Y-110734600D01*
X145471290Y-110734600D02*
X146423100Y-110734600D01*
D18*
%TO.N,RST*%
X144938770Y-108432600D02*
X146534100Y-108432600D01*
X144846270Y-108340100D02*
X144938770Y-108432600D01*
D15*
%TO.N,NetU3_27*%
X145961780Y-107903970D02*
X146194020Y-107903970D01*
X146194020Y-107903970D02*
X146353380Y-107744600D01*
X146353380Y-107744600D02*
X146440790Y-107744600D01*
X144908500Y-106850680D02*
X145961780Y-107903970D01*
%TO.N,NetU3_28*%
X145137100Y-106527600D02*
X145137100Y-104368600D01*
D20*
%TO.N,GND*%
X147105600Y-109829600D02*
X147677100Y-110401100D01*
X145264100Y-109829600D02*
X147105600Y-109829600D01*
D15*
%TO.N,TX*%
X157710100Y-101828600D02*
X159107100Y-103225600D01*
D16*
%TO.N,+5V*%
X159361100Y-113258600D02*
X159361100Y-107162600D01*
D15*
%TO.N,CS*%
X155551100Y-108305600D02*
X158218100Y-108305600D01*
%TO.N,IO1*%
X157583100Y-110464600D02*
X157583100Y-109829600D01*
D16*
%TO.N,+3.3V*%
X149709100Y-116433600D02*
X150598100Y-117322600D01*
X150598100Y-117322600D02*
X155678100Y-117322600D01*
%TO.N,+5V*%
X156948100Y-115671600D02*
X159361100Y-113258600D01*
X153011100Y-115671600D02*
X156948100Y-115671600D01*
X151360100Y-114020600D02*
X153011100Y-115671600D01*
D15*
%TO.N,NetJ1_B5*%
X150217100Y-119735600D02*
X157456100Y-119735600D01*
%TO.N,NetJ1_A5*%
X144248100Y-119608600D02*
X146661100Y-119608600D01*
X141962100Y-121894600D02*
X144248100Y-119608600D01*
X141962100Y-123037600D02*
X141962100Y-121894600D01*
D19*
%TO.N,+3.3V*%
X153384100Y-112496600D02*
X153392100Y-112504600D01*
X153392100Y-113004600D02*
X153392100Y-112504600D01*
D15*
%TO.N,NetU3_27*%
X154662100Y-89573100D02*
X154662100Y-89509600D01*
X152376100Y-91859100D02*
X154662100Y-89573100D01*
X152376100Y-91922600D02*
X152376100Y-91859100D01*
X145518100Y-100304600D02*
X145518100Y-99796600D01*
X145010100Y-100812600D02*
X145518100Y-100304600D01*
X145010100Y-102082600D02*
X145010100Y-100812600D01*
X143359100Y-103733600D02*
X145010100Y-102082600D01*
X143359100Y-105003600D02*
X143359100Y-103733600D01*
X143359100Y-105003600D02*
X144908500Y-106553000D01*
X144908500Y-106850680D02*
X144908500Y-106553000D01*
%TO.N,NetU3_29*%
X144620000Y-101837700D02*
X144620000Y-100502100D01*
X142851100Y-103606600D02*
X144620000Y-101837700D01*
X144883100Y-100239000D02*
X144883100Y-100177600D01*
X144620000Y-100502100D02*
X144883100Y-100239000D01*
X142851100Y-105257600D02*
X142851100Y-103606600D01*
X142851100Y-105257600D02*
X144502100Y-106908600D01*
%TO.N,NetU3_30*%
X144883100Y-89763600D02*
X146788100Y-89763600D01*
%TO.N,NetU3_28*%
X145137100Y-106527600D02*
X145645100Y-107035600D01*
D19*
%TO.N,+3.3V*%
X144232110Y-109211280D02*
X144248110Y-109227270D01*
X144248110Y-109813610D02*
X144264100Y-109829600D01*
X144248110Y-109813610D02*
X144248110Y-109227270D01*
D15*
%TO.N,NetJ1_A5*%
X140057100Y-123037600D02*
X141835100Y-123037600D01*
%TO.N,IO1*%
X153773100Y-114274600D02*
X157583100Y-110464600D01*
D19*
%TO.N,+3.3V*%
X153384100Y-109440600D02*
X153392100Y-109448600D01*
X153384100Y-109440600D02*
X153384100Y-108813600D01*
D15*
%TO.N,CS*%
X154916100Y-108940600D02*
X155551100Y-108305600D01*
%TD*%
%TA.AperFunction,Conductor*%
%TO.N,GND*%
G36*
X159943639Y-81266785D02*
G01*
X159989394Y-81319589D01*
X160000600Y-81371100D01*
X160000600Y-102863488D01*
X159980915Y-102930527D01*
X159928111Y-102976282D01*
X159858953Y-102986226D01*
X159795397Y-102957201D01*
X159762039Y-102910941D01*
X159750030Y-102881950D01*
X159750029Y-102881947D01*
X159750027Y-102881944D01*
X159750025Y-102881940D01*
X159670632Y-102763121D01*
X159670629Y-102763117D01*
X159578819Y-102671307D01*
X159545334Y-102609984D01*
X159542500Y-102583626D01*
X159542500Y-101382630D01*
X158098884Y-101382630D01*
X158036884Y-101366017D01*
X157927798Y-101303036D01*
X157927797Y-101303035D01*
X157927796Y-101303035D01*
X157784353Y-101264600D01*
X157784352Y-101264600D01*
X154863353Y-101264600D01*
X154714847Y-101264600D01*
X154571404Y-101303035D01*
X154571401Y-101303036D01*
X154462316Y-101366017D01*
X154400316Y-101382630D01*
X153446500Y-101382630D01*
X153446500Y-102322221D01*
X153426815Y-102389260D01*
X153410181Y-102409902D01*
X153321789Y-102498293D01*
X153321785Y-102498299D01*
X153278671Y-102572973D01*
X153278669Y-102572978D01*
X153273073Y-102582671D01*
X153247535Y-102626904D01*
X153213454Y-102754100D01*
X153212144Y-102758986D01*
X153212144Y-102758988D01*
X153209100Y-102770348D01*
X153209100Y-102980205D01*
X153189415Y-103047244D01*
X153188202Y-103049095D01*
X153130177Y-103135935D01*
X153130169Y-103135949D01*
X153075481Y-103267979D01*
X153075479Y-103267985D01*
X153047600Y-103408142D01*
X153047600Y-103408145D01*
X153047600Y-103551055D01*
X153047600Y-103551057D01*
X153047599Y-103551057D01*
X153075479Y-103691214D01*
X153075481Y-103691220D01*
X153130169Y-103823250D01*
X153130174Y-103823259D01*
X153209567Y-103942078D01*
X153209570Y-103942082D01*
X153310618Y-104043130D01*
X153310621Y-104043132D01*
X153391392Y-104097101D01*
X153436195Y-104150711D01*
X153446500Y-104200202D01*
X153446500Y-105446630D01*
X156526743Y-105446630D01*
X156593782Y-105466315D01*
X156614424Y-105482949D01*
X158527319Y-107395843D01*
X158560804Y-107457166D01*
X158555820Y-107526858D01*
X158513948Y-107582791D01*
X158448484Y-107607208D01*
X158415447Y-107605141D01*
X158289558Y-107580100D01*
X158289555Y-107580100D01*
X158146645Y-107580100D01*
X158146643Y-107580100D01*
X158006485Y-107607979D01*
X158006479Y-107607981D01*
X157874449Y-107662669D01*
X157874440Y-107662674D01*
X157787597Y-107720702D01*
X157720920Y-107741580D01*
X157718706Y-107741600D01*
X155632965Y-107741600D01*
X155632949Y-107741599D01*
X155625353Y-107741599D01*
X155476848Y-107741599D01*
X155345163Y-107776884D01*
X155333400Y-107780036D01*
X155204799Y-107854284D01*
X155204793Y-107854289D01*
X154870416Y-108188666D01*
X154809093Y-108222151D01*
X154806927Y-108222602D01*
X154704485Y-108242979D01*
X154704479Y-108242981D01*
X154572449Y-108297669D01*
X154572440Y-108297674D01*
X154453621Y-108377067D01*
X154453617Y-108377070D01*
X154352570Y-108478117D01*
X154352565Y-108478123D01*
X154348444Y-108484291D01*
X154294829Y-108529093D01*
X154225503Y-108537796D01*
X154162478Y-108507637D01*
X154129164Y-108458726D01*
X154128189Y-108456113D01*
X154121226Y-108437445D01*
X154077898Y-108321273D01*
X154077893Y-108321264D01*
X153991647Y-108206055D01*
X153991644Y-108206052D01*
X153876435Y-108119806D01*
X153876428Y-108119802D01*
X153741586Y-108069510D01*
X153741585Y-108069509D01*
X153741583Y-108069509D01*
X153681973Y-108063100D01*
X153681963Y-108063100D01*
X153086229Y-108063100D01*
X153086223Y-108063101D01*
X153026616Y-108069508D01*
X152891771Y-108119802D01*
X152891764Y-108119806D01*
X152776555Y-108206052D01*
X152776552Y-108206055D01*
X152690306Y-108321264D01*
X152690302Y-108321271D01*
X152640010Y-108456113D01*
X152640009Y-108456117D01*
X152633600Y-108515727D01*
X152633600Y-108515734D01*
X152633600Y-108515735D01*
X152633600Y-109111470D01*
X152633601Y-109111476D01*
X152640008Y-109171083D01*
X152671778Y-109256261D01*
X152677213Y-109323785D01*
X152666600Y-109377140D01*
X152666600Y-109377145D01*
X152666600Y-109520055D01*
X152666600Y-109520057D01*
X152666599Y-109520057D01*
X152694479Y-109660214D01*
X152694481Y-109660220D01*
X152749169Y-109792250D01*
X152749174Y-109792259D01*
X152828567Y-109911078D01*
X152828570Y-109911082D01*
X152929617Y-110012129D01*
X152929621Y-110012132D01*
X153048440Y-110091525D01*
X153048446Y-110091528D01*
X153048447Y-110091529D01*
X153180480Y-110146219D01*
X153180484Y-110146219D01*
X153180485Y-110146220D01*
X153320642Y-110174100D01*
X153320645Y-110174100D01*
X153463557Y-110174100D01*
X153557851Y-110155342D01*
X153603720Y-110146219D01*
X153735753Y-110091529D01*
X153854579Y-110012132D01*
X153955632Y-109911079D01*
X154035029Y-109792253D01*
X154089719Y-109660220D01*
X154104975Y-109583525D01*
X154117600Y-109520057D01*
X154117600Y-109460198D01*
X154137285Y-109393159D01*
X154190089Y-109347404D01*
X154259247Y-109337460D01*
X154322803Y-109366485D01*
X154344703Y-109391308D01*
X154352569Y-109403081D01*
X154453617Y-109504129D01*
X154453621Y-109504132D01*
X154572440Y-109583525D01*
X154572446Y-109583528D01*
X154572447Y-109583529D01*
X154704480Y-109638219D01*
X154704484Y-109638219D01*
X154704485Y-109638220D01*
X154844642Y-109666100D01*
X154844645Y-109666100D01*
X154987557Y-109666100D01*
X155081851Y-109647342D01*
X155127720Y-109638219D01*
X155259753Y-109583529D01*
X155378579Y-109504132D01*
X155479632Y-109403079D01*
X155559029Y-109284253D01*
X155613719Y-109152220D01*
X155634097Y-109049769D01*
X155642862Y-109033013D01*
X155646882Y-109014536D01*
X155665623Y-108989501D01*
X155666480Y-108987863D01*
X155668033Y-108986282D01*
X155748399Y-108905918D01*
X155809722Y-108872433D01*
X155836079Y-108869600D01*
X157431563Y-108869600D01*
X157498602Y-108889285D01*
X157544357Y-108942089D01*
X157554301Y-109011247D01*
X157525276Y-109074803D01*
X157466498Y-109112577D01*
X157455755Y-109115217D01*
X157371485Y-109131979D01*
X157371479Y-109131981D01*
X157239449Y-109186669D01*
X157239440Y-109186674D01*
X157120621Y-109266067D01*
X157120617Y-109266070D01*
X157019570Y-109367117D01*
X157019567Y-109367121D01*
X156940174Y-109485940D01*
X156940169Y-109485949D01*
X156885481Y-109617979D01*
X156885479Y-109617985D01*
X156857600Y-109758142D01*
X156857600Y-109758145D01*
X156857600Y-109901055D01*
X156857600Y-109901057D01*
X156857599Y-109901057D01*
X156885479Y-110041214D01*
X156885481Y-110041220D01*
X156940171Y-110173255D01*
X156943041Y-110178623D01*
X156941203Y-110179605D01*
X156959249Y-110237234D01*
X156940766Y-110304614D01*
X156922950Y-110327131D01*
X154314712Y-112935370D01*
X154306006Y-112940123D01*
X154299949Y-112947984D01*
X154275846Y-112956592D01*
X154253389Y-112968855D01*
X154243492Y-112968147D01*
X154234150Y-112971484D01*
X154209225Y-112965696D01*
X154183697Y-112963871D01*
X154175753Y-112957924D01*
X154166091Y-112955681D01*
X154148250Y-112937335D01*
X154127764Y-112921999D01*
X154122998Y-112911368D01*
X154117380Y-112905591D01*
X154105857Y-112873130D01*
X154105509Y-112872353D01*
X154105434Y-112871988D01*
X154089719Y-112792980D01*
X154089092Y-112791467D01*
X154087590Y-112784065D01*
X154090088Y-112754858D01*
X154089822Y-112725551D01*
X154092925Y-112716084D01*
X154136191Y-112600083D01*
X154142600Y-112540473D01*
X154142599Y-111944728D01*
X154136191Y-111885117D01*
X154134099Y-111879509D01*
X154085897Y-111750271D01*
X154085893Y-111750264D01*
X153999647Y-111635055D01*
X153999644Y-111635052D01*
X153884435Y-111548806D01*
X153884428Y-111548802D01*
X153749586Y-111498510D01*
X153749585Y-111498509D01*
X153749583Y-111498509D01*
X153689973Y-111492100D01*
X153689963Y-111492100D01*
X153094229Y-111492100D01*
X153094223Y-111492101D01*
X153034616Y-111498508D01*
X152899771Y-111548802D01*
X152899764Y-111548806D01*
X152784555Y-111635052D01*
X152784552Y-111635055D01*
X152698306Y-111750264D01*
X152698302Y-111750271D01*
X152650100Y-111879510D01*
X152648009Y-111885117D01*
X152641600Y-111944727D01*
X152641600Y-111944734D01*
X152641600Y-111944735D01*
X152641600Y-112540470D01*
X152641601Y-112540476D01*
X152648009Y-112600084D01*
X152691268Y-112716070D01*
X152696252Y-112785761D01*
X152694822Y-112791260D01*
X152666600Y-112933142D01*
X152666600Y-112933145D01*
X152666600Y-113076055D01*
X152666600Y-113076057D01*
X152666599Y-113076057D01*
X152694479Y-113216214D01*
X152694481Y-113216220D01*
X152749169Y-113348250D01*
X152749174Y-113348259D01*
X152828567Y-113467078D01*
X152828570Y-113467082D01*
X152929617Y-113568129D01*
X152929621Y-113568132D01*
X153048440Y-113647525D01*
X153048453Y-113647532D01*
X153121184Y-113677658D01*
X153175588Y-113721499D01*
X153197653Y-113787793D01*
X153180374Y-113855492D01*
X153176834Y-113861110D01*
X153130174Y-113930940D01*
X153130169Y-113930949D01*
X153075481Y-114062979D01*
X153075479Y-114062985D01*
X153047600Y-114203142D01*
X153047600Y-114341713D01*
X153027915Y-114408752D01*
X152975111Y-114454507D01*
X152905953Y-114464451D01*
X152842397Y-114435426D01*
X152835919Y-114429394D01*
X151841069Y-113434543D01*
X151841068Y-113434542D01*
X151754632Y-113376788D01*
X151717489Y-113351970D01*
X151717486Y-113351969D01*
X151717485Y-113351968D01*
X151609902Y-113307406D01*
X151609897Y-113307404D01*
X151604394Y-113305125D01*
X151580180Y-113295095D01*
X151555994Y-113290284D01*
X151547182Y-113288531D01*
X151434414Y-113266099D01*
X151434412Y-113266099D01*
X151285788Y-113266099D01*
X151279674Y-113266099D01*
X151279654Y-113266100D01*
X150214100Y-113266100D01*
X150147061Y-113246415D01*
X150101306Y-113193611D01*
X150090100Y-113142100D01*
X150090100Y-112623600D01*
X150090099Y-112623599D01*
X149963101Y-112496600D01*
X149963100Y-112496600D01*
X149865286Y-112594413D01*
X149803962Y-112627897D01*
X149734271Y-112622912D01*
X149689924Y-112594412D01*
X149663582Y-112568070D01*
X149663578Y-112568067D01*
X149544759Y-112488674D01*
X149544750Y-112488669D01*
X149412720Y-112433981D01*
X149412714Y-112433979D01*
X149272557Y-112406100D01*
X149272555Y-112406100D01*
X149129645Y-112406100D01*
X149129643Y-112406100D01*
X148989485Y-112433979D01*
X148989479Y-112433981D01*
X148857449Y-112488669D01*
X148857440Y-112488674D01*
X148789604Y-112534002D01*
X148771557Y-112539652D01*
X148755648Y-112549877D01*
X148724688Y-112554328D01*
X148722927Y-112554880D01*
X148720713Y-112554900D01*
X148602339Y-112554900D01*
X148535300Y-112535215D01*
X148514658Y-112518581D01*
X147523204Y-111527127D01*
X147523198Y-111527122D01*
X147391700Y-111451202D01*
X147391699Y-111451201D01*
X147391698Y-111451201D01*
X147245024Y-111411900D01*
X147245023Y-111411900D01*
X146760487Y-111411900D01*
X146693448Y-111392215D01*
X146691596Y-111391002D01*
X146623759Y-111345674D01*
X146623750Y-111345669D01*
X146491720Y-111290981D01*
X146491714Y-111290979D01*
X146351557Y-111263100D01*
X146351555Y-111263100D01*
X146208645Y-111263100D01*
X146208643Y-111263100D01*
X146068485Y-111290979D01*
X146068479Y-111290981D01*
X145936449Y-111345669D01*
X145936440Y-111345674D01*
X145817621Y-111425067D01*
X145817617Y-111425070D01*
X145716570Y-111526117D01*
X145716567Y-111526121D01*
X145637174Y-111644940D01*
X145637169Y-111644949D01*
X145582481Y-111776979D01*
X145582479Y-111776985D01*
X145554600Y-111917142D01*
X145554600Y-111917145D01*
X145554600Y-112060055D01*
X145554600Y-112060057D01*
X145554599Y-112060057D01*
X145582479Y-112200214D01*
X145582481Y-112200220D01*
X145637169Y-112332250D01*
X145637170Y-112332252D01*
X145637171Y-112332253D01*
X145682502Y-112400096D01*
X145703380Y-112466771D01*
X145703400Y-112468985D01*
X145703400Y-113319900D01*
X145683715Y-113386939D01*
X145630911Y-113432694D01*
X145579400Y-113443900D01*
X145090353Y-113443900D01*
X145061781Y-113435510D01*
X145032581Y-113429620D01*
X145028613Y-113425771D01*
X145023314Y-113424215D01*
X145003815Y-113401712D01*
X144982433Y-113380968D01*
X144979876Y-113374085D01*
X144977559Y-113371411D01*
X144969600Y-113348090D01*
X144969134Y-113346097D01*
X144945719Y-113228380D01*
X144936402Y-113205888D01*
X144934095Y-113196003D01*
X144935511Y-113170847D01*
X144932818Y-113145795D01*
X144937699Y-113131994D01*
X144938023Y-113126244D01*
X144939331Y-113124440D01*
X144938797Y-113124241D01*
X144964470Y-113055407D01*
X144992191Y-112981083D01*
X144998600Y-112921473D01*
X144998599Y-112325728D01*
X144992191Y-112266117D01*
X144941896Y-112131269D01*
X144941895Y-112131268D01*
X144941893Y-112131264D01*
X144855647Y-112016055D01*
X144855644Y-112016052D01*
X144740435Y-111929806D01*
X144740428Y-111929802D01*
X144605586Y-111879510D01*
X144605585Y-111879509D01*
X144605583Y-111879509D01*
X144545973Y-111873100D01*
X144545963Y-111873100D01*
X143950229Y-111873100D01*
X143950223Y-111873101D01*
X143890616Y-111879508D01*
X143755771Y-111929802D01*
X143755764Y-111929806D01*
X143640555Y-112016052D01*
X143640552Y-112016055D01*
X143554306Y-112131264D01*
X143554302Y-112131271D01*
X143504010Y-112266113D01*
X143504009Y-112266117D01*
X143497600Y-112325727D01*
X143497600Y-112325734D01*
X143497600Y-112325735D01*
X143497600Y-112921470D01*
X143497601Y-112921476D01*
X143504008Y-112981083D01*
X143557403Y-113124241D01*
X143553913Y-113125542D01*
X143565036Y-113176641D01*
X143562104Y-113196001D01*
X143559794Y-113205894D01*
X143550481Y-113228380D01*
X143527066Y-113346090D01*
X143526600Y-113348089D01*
X143510360Y-113376788D01*
X143495079Y-113406002D01*
X143493235Y-113407051D01*
X143492191Y-113408898D01*
X143463010Y-113424263D01*
X143434363Y-113440576D01*
X143431366Y-113440925D01*
X143430368Y-113441451D01*
X143428354Y-113441276D01*
X143405847Y-113443900D01*
X142292024Y-113443900D01*
X142140176Y-113443900D01*
X141993502Y-113483201D01*
X141993501Y-113483201D01*
X141993499Y-113483202D01*
X141993498Y-113483202D01*
X141862001Y-113559122D01*
X141861995Y-113559127D01*
X140992627Y-114428495D01*
X140992622Y-114428501D01*
X140916702Y-114559998D01*
X140916702Y-114559999D01*
X140916701Y-114560001D01*
X140916701Y-114560002D01*
X140877400Y-114706676D01*
X140877400Y-119024676D01*
X140877400Y-119176524D01*
X140901093Y-119264949D01*
X140916702Y-119323200D01*
X140916702Y-119323201D01*
X140992622Y-119454698D01*
X140992624Y-119454700D01*
X140992625Y-119454702D01*
X141861998Y-120324075D01*
X141861999Y-120324076D01*
X141862001Y-120324077D01*
X141918265Y-120356561D01*
X141993502Y-120399999D01*
X142140176Y-120439300D01*
X142292024Y-120439300D01*
X142320422Y-120439300D01*
X142387461Y-120458985D01*
X142433216Y-120511789D01*
X142443160Y-120580947D01*
X142414135Y-120644503D01*
X142408105Y-120650977D01*
X141997954Y-121061129D01*
X141615798Y-121443285D01*
X141510789Y-121548293D01*
X141510785Y-121548299D01*
X141436536Y-121676901D01*
X141436535Y-121676904D01*
X141398100Y-121820348D01*
X141398100Y-122349600D01*
X141378415Y-122416639D01*
X141325611Y-122462394D01*
X141274100Y-122473600D01*
X140556494Y-122473600D01*
X140489455Y-122453915D01*
X140487603Y-122452702D01*
X140400759Y-122394674D01*
X140400750Y-122394669D01*
X140268720Y-122339981D01*
X140268714Y-122339979D01*
X140128557Y-122312100D01*
X140128555Y-122312100D01*
X139985645Y-122312100D01*
X139985643Y-122312100D01*
X139845485Y-122339979D01*
X139845479Y-122339981D01*
X139713449Y-122394669D01*
X139713440Y-122394674D01*
X139594621Y-122474067D01*
X139594617Y-122474070D01*
X139493570Y-122575117D01*
X139493567Y-122575121D01*
X139414174Y-122693940D01*
X139414169Y-122693949D01*
X139359481Y-122825979D01*
X139359479Y-122825985D01*
X139331600Y-122966142D01*
X139331600Y-122966145D01*
X139331600Y-123109055D01*
X139331600Y-123109057D01*
X139331599Y-123109057D01*
X139359479Y-123249214D01*
X139359481Y-123249220D01*
X139414169Y-123381250D01*
X139414174Y-123381259D01*
X139493567Y-123500078D01*
X139493570Y-123500082D01*
X139594617Y-123601129D01*
X139594621Y-123601132D01*
X139713440Y-123680525D01*
X139713446Y-123680528D01*
X139713447Y-123680529D01*
X139845480Y-123735219D01*
X139845484Y-123735219D01*
X139845485Y-123735220D01*
X139985642Y-123763100D01*
X139985645Y-123763100D01*
X140128557Y-123763100D01*
X140222851Y-123744342D01*
X140268720Y-123735219D01*
X140400753Y-123680529D01*
X140487603Y-123622498D01*
X140554280Y-123601620D01*
X140556494Y-123601600D01*
X141462706Y-123601600D01*
X141529745Y-123621285D01*
X141531597Y-123622498D01*
X141618440Y-123680525D01*
X141618446Y-123680528D01*
X141618447Y-123680529D01*
X141750480Y-123735219D01*
X141750484Y-123735219D01*
X141750485Y-123735220D01*
X141890642Y-123763100D01*
X141890645Y-123763100D01*
X142033557Y-123763100D01*
X142127851Y-123744342D01*
X142173720Y-123735219D01*
X142305753Y-123680529D01*
X142424579Y-123601132D01*
X142525632Y-123500079D01*
X142605029Y-123381253D01*
X142659719Y-123249220D01*
X142671264Y-123191179D01*
X142687600Y-123109057D01*
X142687600Y-122966142D01*
X142659720Y-122825985D01*
X142659719Y-122825984D01*
X142659719Y-122825980D01*
X142605029Y-122693947D01*
X142605028Y-122693945D01*
X142605022Y-122693935D01*
X142546998Y-122607095D01*
X142541347Y-122589050D01*
X142531123Y-122573140D01*
X142526671Y-122542178D01*
X142526120Y-122540418D01*
X142526100Y-122538205D01*
X142526100Y-122528098D01*
X144923585Y-122528098D01*
X144923585Y-122651321D01*
X144947620Y-122772155D01*
X144947624Y-122772169D01*
X144994771Y-122885993D01*
X144994772Y-122885995D01*
X145063227Y-122988446D01*
X145150353Y-123075572D01*
X145218499Y-123121105D01*
X145252802Y-123144026D01*
X145252803Y-123144026D01*
X145252804Y-123144027D01*
X145252806Y-123144028D01*
X145340844Y-123180494D01*
X145366637Y-123191178D01*
X145487478Y-123215214D01*
X145487482Y-123215215D01*
X145487483Y-123215215D01*
X145610698Y-123215215D01*
X145610699Y-123215214D01*
X145731543Y-123191178D01*
X145845378Y-123144026D01*
X145947826Y-123075572D01*
X146034952Y-122988446D01*
X146103406Y-122885998D01*
X146150558Y-122772163D01*
X146174595Y-122651317D01*
X146174595Y-122528103D01*
X146174594Y-122528098D01*
X150703605Y-122528098D01*
X150703605Y-122651321D01*
X150727640Y-122772155D01*
X150727644Y-122772169D01*
X150774791Y-122885993D01*
X150774792Y-122885995D01*
X150843247Y-122988446D01*
X150930373Y-123075572D01*
X150998519Y-123121105D01*
X151032822Y-123144026D01*
X151032823Y-123144026D01*
X151032824Y-123144027D01*
X151032826Y-123144028D01*
X151120864Y-123180494D01*
X151146657Y-123191178D01*
X151267498Y-123215214D01*
X151267502Y-123215215D01*
X151267503Y-123215215D01*
X151390718Y-123215215D01*
X151390719Y-123215214D01*
X151511563Y-123191178D01*
X151625398Y-123144026D01*
X151727846Y-123075572D01*
X151814972Y-122988446D01*
X151883426Y-122885998D01*
X151930578Y-122772163D01*
X151954615Y-122651317D01*
X151954615Y-122528103D01*
X151930578Y-122407257D01*
X151906696Y-122349600D01*
X151883428Y-122293426D01*
X151883427Y-122293424D01*
X151814972Y-122190973D01*
X151727846Y-122103847D01*
X151625395Y-122035392D01*
X151625393Y-122035391D01*
X151511569Y-121988244D01*
X151511565Y-121988242D01*
X151511563Y-121988242D01*
X151511559Y-121988241D01*
X151511555Y-121988240D01*
X151390721Y-121964205D01*
X151390717Y-121964205D01*
X151267503Y-121964205D01*
X151267498Y-121964205D01*
X151146664Y-121988240D01*
X151146650Y-121988244D01*
X151032826Y-122035391D01*
X151032824Y-122035392D01*
X150930373Y-122103847D01*
X150843247Y-122190973D01*
X150774792Y-122293424D01*
X150774791Y-122293426D01*
X150727644Y-122407250D01*
X150727640Y-122407264D01*
X150703605Y-122528098D01*
X146174594Y-122528098D01*
X146150558Y-122407257D01*
X146126676Y-122349600D01*
X146103408Y-122293426D01*
X146103407Y-122293424D01*
X146034952Y-122190973D01*
X145947826Y-122103847D01*
X145845375Y-122035392D01*
X145845373Y-122035391D01*
X145731549Y-121988244D01*
X145731545Y-121988242D01*
X145731543Y-121988242D01*
X145731539Y-121988241D01*
X145731535Y-121988240D01*
X145610701Y-121964205D01*
X145610697Y-121964205D01*
X145487483Y-121964205D01*
X145487478Y-121964205D01*
X145366644Y-121988240D01*
X145366630Y-121988244D01*
X145252806Y-122035391D01*
X145252804Y-122035392D01*
X145150353Y-122103847D01*
X145063227Y-122190973D01*
X144994772Y-122293424D01*
X144994771Y-122293426D01*
X144947624Y-122407250D01*
X144947620Y-122407264D01*
X144923585Y-122528098D01*
X142526100Y-122528098D01*
X142526100Y-122179578D01*
X142545785Y-122112539D01*
X142562419Y-122091897D01*
X144445397Y-120208919D01*
X144506720Y-120175434D01*
X144533078Y-120172600D01*
X146288706Y-120172600D01*
X146355745Y-120192285D01*
X146357597Y-120193498D01*
X146444440Y-120251525D01*
X146444446Y-120251528D01*
X146444447Y-120251529D01*
X146576480Y-120306219D01*
X146576484Y-120306219D01*
X146576485Y-120306220D01*
X146716642Y-120334100D01*
X146716645Y-120334100D01*
X146859557Y-120334100D01*
X146953851Y-120315342D01*
X146999720Y-120306219D01*
X147131753Y-120251529D01*
X147250579Y-120172132D01*
X147351632Y-120071079D01*
X147431029Y-119952253D01*
X147485719Y-119820220D01*
X147488337Y-119807057D01*
X149491599Y-119807057D01*
X149519479Y-119947214D01*
X149519481Y-119947220D01*
X149574169Y-120079250D01*
X149574174Y-120079259D01*
X149653567Y-120198078D01*
X149653570Y-120198082D01*
X149754617Y-120299129D01*
X149754621Y-120299132D01*
X149873440Y-120378525D01*
X149873446Y-120378528D01*
X149873447Y-120378529D01*
X150005480Y-120433219D01*
X150005484Y-120433219D01*
X150005485Y-120433220D01*
X150145642Y-120461100D01*
X150145645Y-120461100D01*
X150288557Y-120461100D01*
X150398154Y-120439299D01*
X150428720Y-120433219D01*
X150560753Y-120378529D01*
X150627246Y-120334100D01*
X150647603Y-120320498D01*
X150714280Y-120299620D01*
X150716494Y-120299600D01*
X154701600Y-120299600D01*
X154768639Y-120319285D01*
X154814394Y-120372089D01*
X154825600Y-120423600D01*
X154825600Y-120426145D01*
X154825600Y-120569055D01*
X154825600Y-120569057D01*
X154825599Y-120569057D01*
X154853479Y-120709214D01*
X154853481Y-120709220D01*
X154908169Y-120841250D01*
X154908174Y-120841259D01*
X154987567Y-120960078D01*
X154987570Y-120960082D01*
X155088617Y-121061129D01*
X155088621Y-121061132D01*
X155207440Y-121140525D01*
X155207446Y-121140528D01*
X155207447Y-121140529D01*
X155339480Y-121195219D01*
X155339484Y-121195219D01*
X155339485Y-121195220D01*
X155479642Y-121223100D01*
X155479645Y-121223100D01*
X155622557Y-121223100D01*
X155716851Y-121204342D01*
X155762720Y-121195219D01*
X155894753Y-121140529D01*
X156013579Y-121061132D01*
X156114632Y-120960079D01*
X156194029Y-120841253D01*
X156248719Y-120709220D01*
X156261592Y-120644503D01*
X156276600Y-120569057D01*
X156276600Y-120423600D01*
X156296285Y-120356561D01*
X156349089Y-120310806D01*
X156400600Y-120299600D01*
X156956706Y-120299600D01*
X157023745Y-120319285D01*
X157025597Y-120320498D01*
X157112440Y-120378525D01*
X157112446Y-120378528D01*
X157112447Y-120378529D01*
X157244480Y-120433219D01*
X157244484Y-120433219D01*
X157244485Y-120433220D01*
X157384642Y-120461100D01*
X157384645Y-120461100D01*
X157527557Y-120461100D01*
X157637154Y-120439299D01*
X157667720Y-120433219D01*
X157799753Y-120378529D01*
X157918579Y-120299132D01*
X158019632Y-120198079D01*
X158099029Y-120079253D01*
X158153719Y-119947220D01*
X158162842Y-119901351D01*
X158181600Y-119807057D01*
X158181600Y-119664142D01*
X158153720Y-119523985D01*
X158153719Y-119523984D01*
X158153719Y-119523980D01*
X158099029Y-119391947D01*
X158099028Y-119391946D01*
X158099025Y-119391940D01*
X158019632Y-119273121D01*
X158019629Y-119273117D01*
X157918582Y-119172070D01*
X157918578Y-119172067D01*
X157799759Y-119092674D01*
X157799750Y-119092669D01*
X157667720Y-119037981D01*
X157667714Y-119037979D01*
X157527557Y-119010100D01*
X157527555Y-119010100D01*
X157384645Y-119010100D01*
X157384643Y-119010100D01*
X157244485Y-119037979D01*
X157244479Y-119037981D01*
X157112449Y-119092669D01*
X157112440Y-119092674D01*
X157025597Y-119150702D01*
X156958920Y-119171580D01*
X156956706Y-119171600D01*
X150716494Y-119171600D01*
X150649455Y-119151915D01*
X150647603Y-119150702D01*
X150560759Y-119092674D01*
X150560750Y-119092669D01*
X150428720Y-119037981D01*
X150428714Y-119037979D01*
X150288557Y-119010100D01*
X150288555Y-119010100D01*
X150145645Y-119010100D01*
X150145643Y-119010100D01*
X150005485Y-119037979D01*
X150005479Y-119037981D01*
X149873449Y-119092669D01*
X149873440Y-119092674D01*
X149754621Y-119172067D01*
X149754617Y-119172070D01*
X149653570Y-119273117D01*
X149653567Y-119273121D01*
X149574174Y-119391940D01*
X149574169Y-119391949D01*
X149519481Y-119523979D01*
X149519479Y-119523985D01*
X149491600Y-119664142D01*
X149491600Y-119664145D01*
X149491600Y-119807055D01*
X149491600Y-119807057D01*
X149491599Y-119807057D01*
X147488337Y-119807057D01*
X147513600Y-119680055D01*
X147513600Y-119537145D01*
X147513600Y-119537142D01*
X147485720Y-119396985D01*
X147485719Y-119396984D01*
X147485719Y-119396980D01*
X147431029Y-119264947D01*
X147431028Y-119264946D01*
X147431025Y-119264940D01*
X147351632Y-119146121D01*
X147351629Y-119146117D01*
X147250582Y-119045070D01*
X147250578Y-119045067D01*
X147131759Y-118965674D01*
X147131750Y-118965669D01*
X146999720Y-118910981D01*
X146999714Y-118910979D01*
X146859557Y-118883100D01*
X146859555Y-118883100D01*
X146716645Y-118883100D01*
X146716643Y-118883100D01*
X146576485Y-118910979D01*
X146576479Y-118910981D01*
X146444449Y-118965669D01*
X146444440Y-118965674D01*
X146357597Y-119023702D01*
X146290920Y-119044580D01*
X146288706Y-119044600D01*
X144173847Y-119044600D01*
X144074570Y-119071200D01*
X144074570Y-119071201D01*
X144059848Y-119075145D01*
X144030402Y-119083035D01*
X144030401Y-119083036D01*
X143994800Y-119103591D01*
X143988898Y-119105022D01*
X143984311Y-119108998D01*
X143955346Y-119113162D01*
X143926900Y-119120064D01*
X143921161Y-119118077D01*
X143915153Y-119118942D01*
X143888528Y-119106782D01*
X143860873Y-119097211D01*
X143857120Y-119092439D01*
X143851597Y-119089917D01*
X143835773Y-119065294D01*
X143817682Y-119042290D01*
X143816265Y-119034939D01*
X143813823Y-119031139D01*
X143808800Y-118996204D01*
X143808800Y-118882838D01*
X143828485Y-118815799D01*
X143845114Y-118795162D01*
X146010204Y-116630071D01*
X146071525Y-116596588D01*
X146073539Y-116596168D01*
X146153720Y-116580219D01*
X146285753Y-116525529D01*
X146404579Y-116446132D01*
X146505632Y-116345079D01*
X146585029Y-116226253D01*
X146639719Y-116094220D01*
X146660804Y-115988220D01*
X146667600Y-115954057D01*
X146667600Y-115811142D01*
X146641936Y-115682124D01*
X146642742Y-115673107D01*
X146639731Y-115664571D01*
X146645807Y-115638853D01*
X146648163Y-115612532D01*
X146653716Y-115605383D01*
X146655798Y-115596574D01*
X146674814Y-115578224D01*
X146691026Y-115557355D01*
X146700892Y-115553060D01*
X146706076Y-115548058D01*
X146739350Y-115536318D01*
X146739352Y-115536317D01*
X146856994Y-115512915D01*
X146881180Y-115508105D01*
X146948201Y-115480344D01*
X147018489Y-115451230D01*
X147142066Y-115368659D01*
X147699305Y-114811418D01*
X147760628Y-114777934D01*
X147786986Y-114775100D01*
X150996213Y-114775100D01*
X151063252Y-114794785D01*
X151083894Y-114811419D01*
X152425039Y-116152563D01*
X152425041Y-116152566D01*
X152530134Y-116257659D01*
X152589415Y-116297269D01*
X152641092Y-116331798D01*
X152654860Y-116340998D01*
X152699665Y-116394611D01*
X152708372Y-116463936D01*
X152678217Y-116526963D01*
X152618774Y-116563682D01*
X152585969Y-116568100D01*
X150961986Y-116568100D01*
X150894947Y-116548415D01*
X150874305Y-116531781D01*
X150190069Y-115847543D01*
X150190068Y-115847542D01*
X150066492Y-115764972D01*
X150066491Y-115764971D01*
X150066489Y-115764970D01*
X150066486Y-115764968D01*
X150066481Y-115764966D01*
X149929183Y-115708096D01*
X149929173Y-115708093D01*
X149783414Y-115679099D01*
X149783412Y-115679099D01*
X149634788Y-115679099D01*
X149634786Y-115679099D01*
X149489026Y-115708093D01*
X149489016Y-115708096D01*
X149351718Y-115764966D01*
X149351707Y-115764972D01*
X149228131Y-115847542D01*
X149123042Y-115952631D01*
X149040472Y-116076207D01*
X149040466Y-116076218D01*
X148983596Y-116213516D01*
X148983593Y-116213526D01*
X148954599Y-116359285D01*
X148954599Y-116359288D01*
X148954599Y-116507912D01*
X148954599Y-116507914D01*
X148954598Y-116507914D01*
X148983593Y-116653673D01*
X148983596Y-116653683D01*
X149040466Y-116790981D01*
X149040472Y-116790992D01*
X149123042Y-116914568D01*
X149123043Y-116914569D01*
X150007700Y-117799224D01*
X150007721Y-117799247D01*
X150117131Y-117908657D01*
X150117134Y-117908659D01*
X150173169Y-117946100D01*
X150240711Y-117991230D01*
X150321145Y-118024546D01*
X150378020Y-118048105D01*
X150402205Y-118052915D01*
X150451094Y-118062640D01*
X150523786Y-118077101D01*
X150523788Y-118077101D01*
X150678526Y-118077101D01*
X150678546Y-118077100D01*
X155752413Y-118077100D01*
X155752414Y-118077099D01*
X155898180Y-118048105D01*
X155906897Y-118044493D01*
X155930150Y-118037438D01*
X156016720Y-118020219D01*
X156148753Y-117965529D01*
X156267579Y-117886132D01*
X156368632Y-117785079D01*
X156448029Y-117666253D01*
X156502719Y-117534220D01*
X156530600Y-117394055D01*
X156530600Y-117251145D01*
X156530600Y-117251142D01*
X156502720Y-117110985D01*
X156502719Y-117110984D01*
X156502719Y-117110980D01*
X156448029Y-116978947D01*
X156448028Y-116978946D01*
X156448025Y-116978940D01*
X156368632Y-116860121D01*
X156368629Y-116860117D01*
X156267582Y-116759070D01*
X156267578Y-116759067D01*
X156148759Y-116679674D01*
X156148750Y-116679669D01*
X156112516Y-116664661D01*
X156058113Y-116620820D01*
X156036048Y-116554526D01*
X156053327Y-116486827D01*
X156104464Y-116439216D01*
X156159969Y-116426100D01*
X156867654Y-116426100D01*
X156867674Y-116426101D01*
X156873788Y-116426101D01*
X157022414Y-116426101D01*
X157053308Y-116419954D01*
X157143994Y-116401915D01*
X157168180Y-116397105D01*
X157234749Y-116369531D01*
X157305489Y-116340230D01*
X157429066Y-116257659D01*
X159788919Y-113897803D01*
X159850242Y-113864319D01*
X159919933Y-113869303D01*
X159975867Y-113911175D01*
X160000284Y-113976639D01*
X160000600Y-113985485D01*
X160000600Y-128636100D01*
X159980915Y-128703139D01*
X159928111Y-128748894D01*
X159876600Y-128760100D01*
X137125600Y-128760100D01*
X137058561Y-128740415D01*
X137012806Y-128687611D01*
X137001600Y-128636100D01*
X137001600Y-116100531D01*
X137021285Y-116033492D01*
X137074089Y-115987737D01*
X137143247Y-115977793D01*
X137173053Y-115985971D01*
X137178480Y-115988219D01*
X137178484Y-115988219D01*
X137178485Y-115988220D01*
X137318642Y-116016100D01*
X137318645Y-116016100D01*
X137461557Y-116016100D01*
X137555851Y-115997342D01*
X137601720Y-115988219D01*
X137733753Y-115933529D01*
X137852579Y-115854132D01*
X137953632Y-115753079D01*
X138033029Y-115634253D01*
X138087719Y-115502220D01*
X138097862Y-115451227D01*
X138115600Y-115362057D01*
X138115600Y-115219142D01*
X138087720Y-115078985D01*
X138087719Y-115078984D01*
X138087719Y-115078980D01*
X138033029Y-114946947D01*
X138033028Y-114946945D01*
X138033022Y-114946935D01*
X138000398Y-114898109D01*
X137979520Y-114831432D01*
X137979500Y-114829219D01*
X137979500Y-114570098D01*
X137999185Y-114503059D01*
X138015814Y-114482422D01*
X143295124Y-109203111D01*
X143304457Y-109198015D01*
X143311047Y-109189665D01*
X143334591Y-109181560D01*
X143356445Y-109169628D01*
X143367055Y-109170386D01*
X143377113Y-109166925D01*
X143401298Y-109172835D01*
X143426137Y-109174612D01*
X143434652Y-109180986D01*
X143444985Y-109183512D01*
X143462137Y-109201562D01*
X143482070Y-109216484D01*
X143487059Y-109227788D01*
X143493115Y-109234161D01*
X143499605Y-109256213D01*
X143504602Y-109267533D01*
X143506610Y-109278047D01*
X143506610Y-109282735D01*
X143529046Y-109395529D01*
X143529150Y-109396071D01*
X143527659Y-109411402D01*
X143523536Y-109462656D01*
X143520010Y-109472111D01*
X143520008Y-109472117D01*
X143513601Y-109531717D01*
X143513601Y-109531723D01*
X143513600Y-109531736D01*
X143513600Y-110127470D01*
X143513601Y-110127476D01*
X143520008Y-110187083D01*
X143570302Y-110321928D01*
X143570306Y-110321935D01*
X143656552Y-110437144D01*
X143656555Y-110437147D01*
X143771764Y-110523393D01*
X143771771Y-110523397D01*
X143813201Y-110538849D01*
X143906617Y-110573691D01*
X143966227Y-110580100D01*
X144561972Y-110580099D01*
X144621583Y-110573691D01*
X144756431Y-110523396D01*
X144871646Y-110437146D01*
X144957896Y-110321931D01*
X145008191Y-110187083D01*
X145014600Y-110127473D01*
X145014599Y-109531728D01*
X145008191Y-109472117D01*
X144962938Y-109350787D01*
X144955136Y-109305548D01*
X144955309Y-109294299D01*
X144957610Y-109282735D01*
X144957610Y-109145062D01*
X144957625Y-109144089D01*
X144967714Y-109111589D01*
X144977295Y-109078961D01*
X144978045Y-109078311D01*
X144978340Y-109077361D01*
X145004421Y-109055455D01*
X145030099Y-109033206D01*
X145031197Y-109032966D01*
X145031843Y-109032425D01*
X145036331Y-109031850D01*
X145081610Y-109022000D01*
X146072720Y-109022000D01*
X146139759Y-109041685D01*
X146141611Y-109042898D01*
X146190441Y-109075525D01*
X146190449Y-109075530D01*
X146212967Y-109084857D01*
X146322480Y-109130219D01*
X146322484Y-109130219D01*
X146322485Y-109130220D01*
X146462642Y-109158100D01*
X146462645Y-109158100D01*
X146605557Y-109158100D01*
X146699851Y-109139342D01*
X146745720Y-109130219D01*
X146877753Y-109075529D01*
X146996579Y-108996132D01*
X147097632Y-108895079D01*
X147177029Y-108776253D01*
X147231719Y-108644220D01*
X147241122Y-108596947D01*
X147259600Y-108504057D01*
X147259600Y-108361142D01*
X147231720Y-108220985D01*
X147231719Y-108220984D01*
X147231719Y-108220980D01*
X147177029Y-108088947D01*
X147155359Y-108056516D01*
X147134481Y-107989841D01*
X147138311Y-107962411D01*
X147137221Y-107962195D01*
X147166290Y-107816057D01*
X147166290Y-107673142D01*
X147138410Y-107532985D01*
X147138409Y-107532984D01*
X147138409Y-107532980D01*
X147083719Y-107400947D01*
X147083718Y-107400946D01*
X147083715Y-107400940D01*
X147004322Y-107282121D01*
X147004319Y-107282117D01*
X146903272Y-107181070D01*
X146903268Y-107181067D01*
X146784449Y-107101674D01*
X146784440Y-107101669D01*
X146652410Y-107046981D01*
X146652404Y-107046979D01*
X146512247Y-107019100D01*
X146512245Y-107019100D01*
X146483295Y-107019100D01*
X146416256Y-106999415D01*
X146370501Y-106946611D01*
X146361678Y-106919291D01*
X146342720Y-106823987D01*
X146342719Y-106823980D01*
X146288029Y-106691947D01*
X146288028Y-106691946D01*
X146288025Y-106691940D01*
X146208632Y-106573121D01*
X146208629Y-106573117D01*
X146107582Y-106472070D01*
X146107578Y-106472067D01*
X145988759Y-106392674D01*
X145988750Y-106392669D01*
X145856720Y-106337981D01*
X145856715Y-106337979D01*
X145800907Y-106326878D01*
X145738996Y-106294492D01*
X145704423Y-106233776D01*
X145701100Y-106205261D01*
X145701100Y-104867992D01*
X145720785Y-104800953D01*
X145721961Y-104799156D01*
X145780029Y-104712253D01*
X145834719Y-104580220D01*
X145862600Y-104440055D01*
X145862600Y-104297145D01*
X145862600Y-104297142D01*
X145834720Y-104156985D01*
X145834719Y-104156984D01*
X145834719Y-104156980D01*
X145792418Y-104054858D01*
X145780030Y-104024949D01*
X145780025Y-104024940D01*
X145700632Y-103906121D01*
X145700629Y-103906117D01*
X145599582Y-103805070D01*
X145599578Y-103805067D01*
X145480759Y-103725674D01*
X145480750Y-103725669D01*
X145348720Y-103670981D01*
X145348714Y-103670979D01*
X145208557Y-103643100D01*
X145208555Y-103643100D01*
X145065645Y-103643100D01*
X145065643Y-103643100D01*
X144925485Y-103670979D01*
X144925479Y-103670981D01*
X144793449Y-103725669D01*
X144793440Y-103725674D01*
X144674621Y-103805067D01*
X144674617Y-103805070D01*
X144573570Y-103906117D01*
X144573567Y-103906121D01*
X144494174Y-104024940D01*
X144494169Y-104024949D01*
X144439481Y-104156979D01*
X144439479Y-104156985D01*
X144411600Y-104297142D01*
X144411600Y-104297145D01*
X144411600Y-104440055D01*
X144411600Y-104440057D01*
X144411599Y-104440057D01*
X144439479Y-104580214D01*
X144439481Y-104580220D01*
X144494169Y-104712250D01*
X144494170Y-104712252D01*
X144494171Y-104712253D01*
X144552202Y-104799103D01*
X144573080Y-104865778D01*
X144573100Y-104867992D01*
X144573100Y-105120622D01*
X144553415Y-105187661D01*
X144500611Y-105233416D01*
X144431453Y-105243360D01*
X144367897Y-105214335D01*
X144361419Y-105208303D01*
X143959419Y-104806303D01*
X143925934Y-104744980D01*
X143923100Y-104718622D01*
X143923100Y-104018578D01*
X143942785Y-103951539D01*
X143959419Y-103930897D01*
X144630023Y-103260293D01*
X145461413Y-102428904D01*
X145535665Y-102300296D01*
X145574101Y-102156852D01*
X145574101Y-102008347D01*
X145574101Y-102000752D01*
X145574100Y-102000734D01*
X145574100Y-101097577D01*
X145593785Y-101030538D01*
X145610415Y-101009900D01*
X145854194Y-100766120D01*
X145854199Y-100766117D01*
X145864402Y-100755913D01*
X145864404Y-100755913D01*
X145969413Y-100650904D01*
X145971692Y-100646956D01*
X146016477Y-100569387D01*
X146016480Y-100569378D01*
X146016486Y-100569370D01*
X146043665Y-100522297D01*
X146082100Y-100378853D01*
X146082100Y-100295992D01*
X146101785Y-100228953D01*
X146102961Y-100227156D01*
X146161029Y-100140253D01*
X146215719Y-100008220D01*
X146243600Y-99868055D01*
X146243600Y-99725145D01*
X146243600Y-99725142D01*
X146215720Y-99584985D01*
X146215719Y-99584984D01*
X146215719Y-99584980D01*
X146161029Y-99452947D01*
X146161028Y-99452946D01*
X146161025Y-99452940D01*
X146081632Y-99334121D01*
X146081629Y-99334117D01*
X145980582Y-99233070D01*
X145980578Y-99233067D01*
X145861759Y-99153674D01*
X145861750Y-99153669D01*
X145729720Y-99098981D01*
X145729714Y-99098979D01*
X145589557Y-99071100D01*
X145589555Y-99071100D01*
X145446645Y-99071100D01*
X145446643Y-99071100D01*
X145306485Y-99098979D01*
X145306479Y-99098981D01*
X145174449Y-99153669D01*
X145174440Y-99153674D01*
X145055621Y-99233067D01*
X145055617Y-99233070D01*
X144954570Y-99334117D01*
X144954567Y-99334121D01*
X144912559Y-99396991D01*
X144858947Y-99441796D01*
X144817596Y-99450405D01*
X144817705Y-99451503D01*
X144811642Y-99452099D01*
X144671485Y-99479979D01*
X144671479Y-99479981D01*
X144539449Y-99534669D01*
X144539440Y-99534674D01*
X144420621Y-99614067D01*
X144420617Y-99614070D01*
X144319570Y-99715117D01*
X144319567Y-99715121D01*
X144240174Y-99833940D01*
X144240169Y-99833949D01*
X144185481Y-99965979D01*
X144185479Y-99965985D01*
X144157600Y-100106142D01*
X144157600Y-100141773D01*
X144155817Y-100150538D01*
X144156770Y-100156095D01*
X144151366Y-100172419D01*
X144147746Y-100190216D01*
X144144781Y-100197201D01*
X144094435Y-100284404D01*
X144073835Y-100361287D01*
X144071593Y-100369651D01*
X144071591Y-100369658D01*
X144056000Y-100427848D01*
X144056000Y-101552721D01*
X144036315Y-101619760D01*
X144019681Y-101640402D01*
X142399789Y-103260293D01*
X142399785Y-103260299D01*
X142337546Y-103368100D01*
X142325535Y-103388904D01*
X142325533Y-103388908D01*
X142318096Y-103416667D01*
X142318096Y-103416669D01*
X142287100Y-103532348D01*
X142287100Y-105331852D01*
X142325535Y-105475296D01*
X142399787Y-105603904D01*
X142399789Y-105603906D01*
X142511861Y-105715978D01*
X142511867Y-105715983D01*
X143750166Y-106954283D01*
X143783651Y-107015606D01*
X143784102Y-107017772D01*
X143804479Y-107120214D01*
X143804481Y-107120220D01*
X143859169Y-107252250D01*
X143859174Y-107252259D01*
X143938567Y-107371078D01*
X143938570Y-107371082D01*
X144039617Y-107472129D01*
X144039621Y-107472132D01*
X144116644Y-107523598D01*
X144161449Y-107577211D01*
X144170156Y-107646536D01*
X144140001Y-107709563D01*
X144080558Y-107746282D01*
X144047753Y-107750700D01*
X143247004Y-107750700D01*
X143128117Y-107782556D01*
X143097096Y-107790868D01*
X142962703Y-107868461D01*
X142962697Y-107868465D01*
X137213281Y-113617882D01*
X137151958Y-113651367D01*
X137082266Y-113646383D01*
X137026333Y-113604511D01*
X137001916Y-113539047D01*
X137001600Y-113530201D01*
X137001600Y-91994057D01*
X151650599Y-91994057D01*
X151678479Y-92134214D01*
X151678481Y-92134220D01*
X151733169Y-92266250D01*
X151733174Y-92266259D01*
X151812567Y-92385078D01*
X151812570Y-92385082D01*
X151913617Y-92486129D01*
X151913621Y-92486132D01*
X152032440Y-92565525D01*
X152032446Y-92565528D01*
X152032447Y-92565529D01*
X152164480Y-92620219D01*
X152164484Y-92620219D01*
X152164485Y-92620220D01*
X152304642Y-92648100D01*
X152304645Y-92648100D01*
X152447557Y-92648100D01*
X152541851Y-92629342D01*
X152587720Y-92620219D01*
X152719753Y-92565529D01*
X152838579Y-92486132D01*
X152939632Y-92385079D01*
X153019029Y-92266253D01*
X153073719Y-92134220D01*
X153101600Y-91994055D01*
X153101600Y-91982577D01*
X153121285Y-91915538D01*
X153137914Y-91894901D01*
X154787050Y-90245764D01*
X154848371Y-90212281D01*
X154850488Y-90211839D01*
X154873720Y-90207219D01*
X155005753Y-90152529D01*
X155124579Y-90073132D01*
X155225632Y-89972079D01*
X155305029Y-89853253D01*
X155359719Y-89721220D01*
X155387600Y-89581055D01*
X155387600Y-89438145D01*
X155387600Y-89438142D01*
X155359720Y-89297985D01*
X155359719Y-89297984D01*
X155359719Y-89297980D01*
X155305029Y-89165947D01*
X155305028Y-89165946D01*
X155305025Y-89165940D01*
X155225632Y-89047121D01*
X155225629Y-89047117D01*
X155124582Y-88946070D01*
X155124578Y-88946067D01*
X155005759Y-88866674D01*
X155005750Y-88866669D01*
X154873720Y-88811981D01*
X154873714Y-88811979D01*
X154733557Y-88784100D01*
X154733555Y-88784100D01*
X154590645Y-88784100D01*
X154590643Y-88784100D01*
X154450485Y-88811979D01*
X154450479Y-88811981D01*
X154318449Y-88866669D01*
X154318440Y-88866674D01*
X154199621Y-88946067D01*
X154199617Y-88946070D01*
X154098570Y-89047117D01*
X154098567Y-89047121D01*
X154019174Y-89165940D01*
X154019169Y-89165949D01*
X153964481Y-89297979D01*
X153964479Y-89297985D01*
X153936600Y-89438142D01*
X153936600Y-89449621D01*
X153916915Y-89516660D01*
X153900281Y-89537302D01*
X152251149Y-91186433D01*
X152189826Y-91219918D01*
X152187662Y-91220369D01*
X152164482Y-91224980D01*
X152164481Y-91224980D01*
X152032449Y-91279669D01*
X152032440Y-91279674D01*
X151913621Y-91359067D01*
X151913617Y-91359070D01*
X151812570Y-91460117D01*
X151812567Y-91460121D01*
X151733174Y-91578940D01*
X151733169Y-91578949D01*
X151678481Y-91710979D01*
X151678479Y-91710985D01*
X151650600Y-91851142D01*
X151650600Y-91851145D01*
X151650600Y-91994055D01*
X151650600Y-91994057D01*
X151650599Y-91994057D01*
X137001600Y-91994057D01*
X137001600Y-89835057D01*
X144157599Y-89835057D01*
X144185479Y-89975214D01*
X144185481Y-89975220D01*
X144240169Y-90107250D01*
X144240174Y-90107259D01*
X144319567Y-90226078D01*
X144319570Y-90226082D01*
X144420617Y-90327129D01*
X144420621Y-90327132D01*
X144539440Y-90406525D01*
X144539446Y-90406528D01*
X144539447Y-90406529D01*
X144671480Y-90461219D01*
X144671484Y-90461219D01*
X144671485Y-90461220D01*
X144811642Y-90489100D01*
X144811645Y-90489100D01*
X144954557Y-90489100D01*
X145048851Y-90470342D01*
X145094720Y-90461219D01*
X145226753Y-90406529D01*
X145313603Y-90348498D01*
X145380280Y-90327620D01*
X145382494Y-90327600D01*
X146288706Y-90327600D01*
X146355745Y-90347285D01*
X146357597Y-90348498D01*
X146444440Y-90406525D01*
X146444446Y-90406528D01*
X146444447Y-90406529D01*
X146576480Y-90461219D01*
X146576484Y-90461219D01*
X146576485Y-90461220D01*
X146716642Y-90489100D01*
X146716645Y-90489100D01*
X146859557Y-90489100D01*
X146953851Y-90470342D01*
X146999720Y-90461219D01*
X147131753Y-90406529D01*
X147250579Y-90327132D01*
X147351632Y-90226079D01*
X147431029Y-90107253D01*
X147485719Y-89975220D01*
X147513600Y-89835055D01*
X147513600Y-89692145D01*
X147513600Y-89692142D01*
X147485720Y-89551985D01*
X147485719Y-89551984D01*
X147485719Y-89551980D01*
X147431029Y-89419947D01*
X147431028Y-89419946D01*
X147431025Y-89419940D01*
X147351632Y-89301121D01*
X147351629Y-89301117D01*
X147250582Y-89200070D01*
X147250578Y-89200067D01*
X147131759Y-89120674D01*
X147131750Y-89120669D01*
X146999720Y-89065981D01*
X146999714Y-89065979D01*
X146859557Y-89038100D01*
X146859555Y-89038100D01*
X146716645Y-89038100D01*
X146716643Y-89038100D01*
X146576485Y-89065979D01*
X146576479Y-89065981D01*
X146444449Y-89120669D01*
X146444440Y-89120674D01*
X146357597Y-89178702D01*
X146290920Y-89199580D01*
X146288706Y-89199600D01*
X145382494Y-89199600D01*
X145315455Y-89179915D01*
X145313603Y-89178702D01*
X145226759Y-89120674D01*
X145226750Y-89120669D01*
X145094720Y-89065981D01*
X145094714Y-89065979D01*
X144954557Y-89038100D01*
X144954555Y-89038100D01*
X144811645Y-89038100D01*
X144811643Y-89038100D01*
X144671485Y-89065979D01*
X144671479Y-89065981D01*
X144539449Y-89120669D01*
X144539440Y-89120674D01*
X144420621Y-89200067D01*
X144420617Y-89200070D01*
X144319570Y-89301117D01*
X144319567Y-89301121D01*
X144240174Y-89419940D01*
X144240169Y-89419949D01*
X144185481Y-89551979D01*
X144185479Y-89551985D01*
X144157600Y-89692142D01*
X144157600Y-89692145D01*
X144157600Y-89835055D01*
X144157600Y-89835057D01*
X144157599Y-89835057D01*
X137001600Y-89835057D01*
X137001600Y-81371100D01*
X137021285Y-81304061D01*
X137074089Y-81258306D01*
X137125600Y-81247100D01*
X159876600Y-81247100D01*
X159943639Y-81266785D01*
G37*
%TD.AperFunction*%
%TA.AperFunction,Conductor*%
G36*
X159939873Y-103481069D02*
G01*
X159987484Y-103532206D01*
X160000600Y-103587711D01*
X160000600Y-106435714D01*
X159980915Y-106502753D01*
X159928111Y-106548508D01*
X159858953Y-106558452D01*
X159795397Y-106529427D01*
X159788919Y-106523395D01*
X158923835Y-105658311D01*
X158890350Y-105596988D01*
X158895334Y-105527296D01*
X158937206Y-105471363D01*
X159002670Y-105446946D01*
X159011516Y-105446630D01*
X159288500Y-105446630D01*
X159542500Y-105192630D01*
X159542500Y-103867573D01*
X159562185Y-103800534D01*
X159578814Y-103779896D01*
X159670632Y-103688079D01*
X159750029Y-103569253D01*
X159750030Y-103569250D01*
X159750032Y-103569247D01*
X159762039Y-103540259D01*
X159805879Y-103485855D01*
X159872173Y-103463790D01*
X159939873Y-103481069D01*
G37*
%TD.AperFunction*%
%TD*%
M02*
