M48
; DRILL file {KiCad 9.0.8+dfsg-1} date 2026-08-19T01:32:29+0530
; FORMAT={-:-/ absolute / metric / decimal}
; #@! TF.CreationDate,2026-08-19T01:32:29+05:30
; #@! TF.GenerationSoftware,Kicad,Pcbnew,9.0.8+dfsg-1
; #@! TF.FileFunction,Plated,1,2,PTH
FMAT,2
METRIC
; #@! TA.AperFunction,Plated,PTH,ViaDrill
T1C0.300
; #@! TA.AperFunction,Plated,PTH,ViaDrill
T2C0.400
; #@! TA.AperFunction,Plated,PTH,ComponentDrill
T3C0.700
%
G90
G05
T1
X136.966Y-97.722
X136.966Y-99.182
X136.966Y-100.643
X136.966Y-106.866
X136.966Y-108.326
X136.966Y-109.787
X136.966Y-111.184
X136.966Y-112.644
X136.966Y-114.105
X137.093Y-83.244
X137.093Y-84.704
X137.093Y-86.165
X137.093Y-89.467
X137.093Y-90.927
X137.093Y-92.388
X137.093Y-101.913
X137.093Y-103.373
X137.093Y-104.834
X137.22Y-120.709
X137.22Y-122.169
X137.22Y-123.63
X137.22Y-124.9
X137.22Y-126.36
X137.22Y-127.821
X137.39Y-115.291
X137.433Y-81.593
X138.894Y-81.593
X139.168Y-98.908
X140.057Y-123.038
X140.311Y-98.908
X140.354Y-81.593
X141.962Y-123.038
X142.005Y-81.593
X142.724Y-114.783
X142.935Y-126.551
X143.466Y-81.593
X143.74Y-119.101
X144.078Y-124.011
X144.232Y-109.211
X144.248Y-113.44
X144.384Y-103.734
X144.502Y-106.909
X144.883Y-89.764
X144.883Y-100.178
X144.926Y-81.593
X145.137Y-104.369
X145.264Y-102.591
X145.264Y-119.101
X145.518Y-99.797
X145.645Y-107.036
X145.729Y-126.551
X145.899Y-103.734
X145.942Y-115.883
X146.193Y-100.305
X146.28Y-111.989
X146.441Y-107.745
X146.534Y-108.433
X146.577Y-81.593
X146.788Y-89.764
X146.788Y-119.609
X147.677Y-109.195
X147.677Y-110.401
X147.677Y-111.586
X148.038Y-81.593
X148.312Y-100.305
X148.82Y-109.195
X148.82Y-110.401
X148.82Y-111.608
X149.201Y-113.132
X149.498Y-81.593
X149.709Y-116.434
X149.836Y-119.228
X149.963Y-109.195
X149.963Y-110.401
X149.963Y-111.608
X150.217Y-119.736
X151.149Y-81.593
X151.19Y-126.551
X151.233Y-100.432
X151.36Y-119.228
X151.487Y-101.956
X151.487Y-103.734
X152.376Y-91.923
X152.61Y-81.593
X152.884Y-119.228
X153.392Y-109.449
X153.392Y-113.005
X153.773Y-103.48
X153.773Y-114.275
X154.052Y-122.555
X154.07Y-81.593
X154.238Y-126.551
X154.662Y-89.51
X154.916Y-104.369
X154.916Y-108.941
X155.043Y-105.512
X155.216Y-103.406
X155.551Y-120.498
X155.805Y-117.323
X155.848Y-81.593
X155.932Y-102.718
X157.309Y-81.593
X157.456Y-103.353
X157.456Y-119.736
X157.583Y-109.83
X158.218Y-108.306
X158.769Y-81.593
X159.107Y-103.226
X159.699Y-121.725
X159.699Y-123.185
X159.699Y-124.646
X159.826Y-115.883
X159.826Y-117.343
X159.826Y-118.804
X159.953Y-104.326
X159.953Y-105.786
X159.953Y-107.247
X159.953Y-109.406
X159.953Y-110.866
X159.953Y-112.327
X160.08Y-82.355
X160.08Y-83.815
X160.08Y-85.276
X160.08Y-87.562
X160.08Y-89.022
X160.08Y-90.483
X160.08Y-93.658
X160.08Y-95.118
X160.08Y-96.579
X160.164Y-97.552
X160.164Y-99.012
X160.164Y-100.473
T2
X139.93Y-115.545
X139.93Y-116.815
X141.073Y-119.609
X142.343Y-118.847
T3
G00X144.119Y-121.53
M15
G01X144.119Y-122.43
M16
G05
G00X144.119Y-125.83
M15
G01X144.119Y-126.53
M16
G05
G00X152.759Y-121.53
M15
G01X152.759Y-122.43
M16
G05
G00X152.759Y-125.83
M15
G01X152.759Y-126.53
M16
G05
M30
