%TF.GenerationSoftware,KiCad,Pcbnew,9.0.8+dfsg-1*%
%TF.CreationDate,2026-08-19T01:32:44+05:30*%
%TF.ProjectId,hey,6865792e-6b69-4636-9164-5f7063625858,rev?*%
%TF.SameCoordinates,Original*%
%TF.FileFunction,Legend,Top*%
%TF.FilePolarity,Positive*%
%FSLAX46Y46*%
G04 Gerber Fmt 4.6, Leading zero omitted, Abs format (unit mm)*
G04 Created by KiCad (PCBNEW 9.0.8+dfsg-1) date 2026-08-19 01:32:44*
%MOMM*%
%LPD*%
G01*
G04 APERTURE LIST*
%ADD10C,0.127000*%
%ADD11C,0.152400*%
%ADD12C,0.200000*%
%ADD13C,0.254000*%
%ADD14C,0.100000*%
%ADD15C,0.170180*%
G04 APERTURE END LIST*
D10*
X158745032Y-99728186D02*
X159035318Y-99728186D01*
X158890175Y-100236186D02*
X158890175Y-99728186D01*
X159156271Y-99728186D02*
X159494938Y-100236186D01*
X159494938Y-99728186D02*
X159156271Y-100236186D01*
X157391575Y-100236186D02*
X157222241Y-99994281D01*
X157101289Y-100236186D02*
X157101289Y-99728186D01*
X157101289Y-99728186D02*
X157294813Y-99728186D01*
X157294813Y-99728186D02*
X157343194Y-99752376D01*
X157343194Y-99752376D02*
X157367384Y-99776567D01*
X157367384Y-99776567D02*
X157391575Y-99824948D01*
X157391575Y-99824948D02*
X157391575Y-99897519D01*
X157391575Y-99897519D02*
X157367384Y-99945900D01*
X157367384Y-99945900D02*
X157343194Y-99970091D01*
X157343194Y-99970091D02*
X157294813Y-99994281D01*
X157294813Y-99994281D02*
X157101289Y-99994281D01*
X157560908Y-99728186D02*
X157899575Y-100236186D01*
X157899575Y-99728186D02*
X157560908Y-100236186D01*
X155185509Y-99728186D02*
X154943604Y-99728186D01*
X154943604Y-99728186D02*
X154919413Y-99970091D01*
X154919413Y-99970091D02*
X154943604Y-99945900D01*
X154943604Y-99945900D02*
X154991985Y-99921710D01*
X154991985Y-99921710D02*
X155112937Y-99921710D01*
X155112937Y-99921710D02*
X155161318Y-99945900D01*
X155161318Y-99945900D02*
X155185509Y-99970091D01*
X155185509Y-99970091D02*
X155209699Y-100018472D01*
X155209699Y-100018472D02*
X155209699Y-100139424D01*
X155209699Y-100139424D02*
X155185509Y-100187805D01*
X155185509Y-100187805D02*
X155161318Y-100211996D01*
X155161318Y-100211996D02*
X155112937Y-100236186D01*
X155112937Y-100236186D02*
X154991985Y-100236186D01*
X154991985Y-100236186D02*
X154943604Y-100211996D01*
X154943604Y-100211996D02*
X154919413Y-100187805D01*
X155354842Y-99728186D02*
X155524176Y-100236186D01*
X155524176Y-100236186D02*
X155693509Y-99728186D01*
X153050699Y-99752376D02*
X153002318Y-99728186D01*
X153002318Y-99728186D02*
X152929747Y-99728186D01*
X152929747Y-99728186D02*
X152857175Y-99752376D01*
X152857175Y-99752376D02*
X152808794Y-99800757D01*
X152808794Y-99800757D02*
X152784604Y-99849138D01*
X152784604Y-99849138D02*
X152760413Y-99945900D01*
X152760413Y-99945900D02*
X152760413Y-100018472D01*
X152760413Y-100018472D02*
X152784604Y-100115234D01*
X152784604Y-100115234D02*
X152808794Y-100163615D01*
X152808794Y-100163615D02*
X152857175Y-100211996D01*
X152857175Y-100211996D02*
X152929747Y-100236186D01*
X152929747Y-100236186D02*
X152978128Y-100236186D01*
X152978128Y-100236186D02*
X153050699Y-100211996D01*
X153050699Y-100211996D02*
X153074890Y-100187805D01*
X153074890Y-100187805D02*
X153074890Y-100018472D01*
X153074890Y-100018472D02*
X152978128Y-100018472D01*
X153292604Y-100236186D02*
X153292604Y-99728186D01*
X153292604Y-99728186D02*
X153582890Y-100236186D01*
X153582890Y-100236186D02*
X153582890Y-99728186D01*
X153824794Y-100236186D02*
X153824794Y-99728186D01*
X153824794Y-99728186D02*
X153945746Y-99728186D01*
X153945746Y-99728186D02*
X154018318Y-99752376D01*
X154018318Y-99752376D02*
X154066699Y-99800757D01*
X154066699Y-99800757D02*
X154090889Y-99849138D01*
X154090889Y-99849138D02*
X154115080Y-99945900D01*
X154115080Y-99945900D02*
X154115080Y-100018472D01*
X154115080Y-100018472D02*
X154090889Y-100115234D01*
X154090889Y-100115234D02*
X154066699Y-100163615D01*
X154066699Y-100163615D02*
X154018318Y-100211996D01*
X154018318Y-100211996D02*
X153945746Y-100236186D01*
X153945746Y-100236186D02*
X153824794Y-100236186D01*
D11*
X159708945Y-94790508D02*
X158946945Y-94790508D01*
X159309802Y-94790508D02*
X159309802Y-94355079D01*
X159708945Y-94355079D02*
X158946945Y-94355079D01*
X159200945Y-94064793D02*
X159708945Y-93883365D01*
X159200945Y-93701936D02*
X159708945Y-93883365D01*
X159708945Y-93883365D02*
X159890374Y-93955936D01*
X159890374Y-93955936D02*
X159926660Y-93992222D01*
X159926660Y-93992222D02*
X159962945Y-94064793D01*
X159200945Y-93411651D02*
X159962945Y-93411651D01*
X159237231Y-93411651D02*
X159200945Y-93339080D01*
X159200945Y-93339080D02*
X159200945Y-93193937D01*
X159200945Y-93193937D02*
X159237231Y-93121365D01*
X159237231Y-93121365D02*
X159273517Y-93085080D01*
X159273517Y-93085080D02*
X159346088Y-93048794D01*
X159346088Y-93048794D02*
X159563802Y-93048794D01*
X159563802Y-93048794D02*
X159636374Y-93085080D01*
X159636374Y-93085080D02*
X159672660Y-93121365D01*
X159672660Y-93121365D02*
X159708945Y-93193937D01*
X159708945Y-93193937D02*
X159708945Y-93339080D01*
X159708945Y-93339080D02*
X159672660Y-93411651D01*
X159672660Y-92431936D02*
X159708945Y-92504508D01*
X159708945Y-92504508D02*
X159708945Y-92649651D01*
X159708945Y-92649651D02*
X159672660Y-92722222D01*
X159672660Y-92722222D02*
X159600088Y-92758508D01*
X159600088Y-92758508D02*
X159309802Y-92758508D01*
X159309802Y-92758508D02*
X159237231Y-92722222D01*
X159237231Y-92722222D02*
X159200945Y-92649651D01*
X159200945Y-92649651D02*
X159200945Y-92504508D01*
X159200945Y-92504508D02*
X159237231Y-92431936D01*
X159237231Y-92431936D02*
X159309802Y-92395651D01*
X159309802Y-92395651D02*
X159382374Y-92395651D01*
X159382374Y-92395651D02*
X159454945Y-92758508D01*
X159708945Y-92069079D02*
X159200945Y-92069079D01*
X159346088Y-92069079D02*
X159273517Y-92032793D01*
X159273517Y-92032793D02*
X159237231Y-91996508D01*
X159237231Y-91996508D02*
X159200945Y-91923936D01*
X159200945Y-91923936D02*
X159200945Y-91851365D01*
X158983231Y-91198222D02*
X158946945Y-91270794D01*
X158946945Y-91270794D02*
X158946945Y-91379651D01*
X158946945Y-91379651D02*
X158983231Y-91488508D01*
X158983231Y-91488508D02*
X159055802Y-91561079D01*
X159055802Y-91561079D02*
X159128374Y-91597365D01*
X159128374Y-91597365D02*
X159273517Y-91633651D01*
X159273517Y-91633651D02*
X159382374Y-91633651D01*
X159382374Y-91633651D02*
X159527517Y-91597365D01*
X159527517Y-91597365D02*
X159600088Y-91561079D01*
X159600088Y-91561079D02*
X159672660Y-91488508D01*
X159672660Y-91488508D02*
X159708945Y-91379651D01*
X159708945Y-91379651D02*
X159708945Y-91307079D01*
X159708945Y-91307079D02*
X159672660Y-91198222D01*
X159672660Y-91198222D02*
X159636374Y-91161936D01*
X159636374Y-91161936D02*
X159382374Y-91161936D01*
X159382374Y-91161936D02*
X159382374Y-91307079D01*
X159708945Y-90835365D02*
X159200945Y-90835365D01*
X159346088Y-90835365D02*
X159273517Y-90799079D01*
X159273517Y-90799079D02*
X159237231Y-90762794D01*
X159237231Y-90762794D02*
X159200945Y-90690222D01*
X159200945Y-90690222D02*
X159200945Y-90617651D01*
X159672660Y-90073365D02*
X159708945Y-90145937D01*
X159708945Y-90145937D02*
X159708945Y-90291080D01*
X159708945Y-90291080D02*
X159672660Y-90363651D01*
X159672660Y-90363651D02*
X159600088Y-90399937D01*
X159600088Y-90399937D02*
X159309802Y-90399937D01*
X159309802Y-90399937D02*
X159237231Y-90363651D01*
X159237231Y-90363651D02*
X159200945Y-90291080D01*
X159200945Y-90291080D02*
X159200945Y-90145937D01*
X159200945Y-90145937D02*
X159237231Y-90073365D01*
X159237231Y-90073365D02*
X159309802Y-90037080D01*
X159309802Y-90037080D02*
X159382374Y-90037080D01*
X159382374Y-90037080D02*
X159454945Y-90399937D01*
X159200945Y-89783079D02*
X159708945Y-89601651D01*
X159200945Y-89420222D02*
X159708945Y-89601651D01*
X159708945Y-89601651D02*
X159890374Y-89674222D01*
X159890374Y-89674222D02*
X159926660Y-89710508D01*
X159926660Y-89710508D02*
X159962945Y-89783079D01*
D12*
%TO.C,U4*%
X139217100Y-83144600D02*
G75*
G02*
X139017100Y-83144600I-100000J0D01*
G01*
X139017100Y-83144600D02*
G75*
G02*
X139217100Y-83144600I100000J0D01*
G01*
D10*
X140693100Y-81644600D02*
X156693100Y-81644600D01*
X140693100Y-98644600D02*
X156693100Y-98644600D01*
D12*
%TO.C,X1*%
X151947330Y-101398600D02*
G75*
G02*
X151314870Y-101398600I-316230J0D01*
G01*
X151314870Y-101398600D02*
G75*
G02*
X151947330Y-101398600I316230J0D01*
G01*
X151031100Y-103898600D02*
X151031100Y-100698600D01*
X147031100Y-103898600D02*
X151031100Y-103898600D01*
X147031100Y-103898600D02*
X147031100Y-100698600D01*
X147031100Y-100698600D02*
X151031100Y-100698600D01*
%TO.C,U3*%
X153395100Y-113064600D02*
G75*
G02*
X153195100Y-113064600I-100000J0D01*
G01*
X153195100Y-113064600D02*
G75*
G02*
X153395100Y-113064600I100000J0D01*
G01*
D10*
X145320100Y-106964600D02*
X145800100Y-106964600D01*
X145320100Y-113964600D02*
X145800100Y-113964600D01*
X151840100Y-106964600D02*
X152320100Y-106964600D01*
X151840100Y-113964600D02*
X152320100Y-113964600D01*
X145320100Y-107444600D02*
X145320100Y-106964600D01*
X145320100Y-113964600D02*
X145320100Y-113484600D01*
X152320100Y-107444600D02*
X152320100Y-106964600D01*
X152320100Y-113964600D02*
X152320100Y-113484600D01*
D12*
%TO.C,U2*%
X158953100Y-105376600D02*
G75*
G02*
X158753100Y-105376600I-100000J0D01*
G01*
X158753100Y-105376600D02*
G75*
G02*
X158953100Y-105376600I100000J0D01*
G01*
D10*
X159588100Y-113231600D02*
X159588100Y-107951600D01*
X154308100Y-113231600D02*
X154308100Y-107951600D01*
D12*
%TO.C,U1*%
X137450100Y-114004600D02*
X137450100Y-112704600D01*
X137313100Y-112354600D02*
X143817100Y-112354600D01*
X143817100Y-112354600D02*
X143817100Y-107654600D01*
X137313100Y-107654600D02*
X143817100Y-107654600D01*
X137313100Y-112354600D02*
X137313100Y-107654600D01*
D13*
%TO.C,SW2*%
X140344120Y-124688600D02*
G75*
G02*
X138500080Y-124688600I-922020J0D01*
G01*
X138500080Y-124688600D02*
G75*
G02*
X140344120Y-124688600I922020J0D01*
G01*
X141182830Y-126088650D02*
G75*
G02*
X140461470Y-126088650I-360680J0D01*
G01*
X140461470Y-126088650D02*
G75*
G02*
X141182830Y-126088650I360680J0D01*
G01*
X141182830Y-123288550D02*
G75*
G02*
X140461470Y-123288550I-360680J0D01*
G01*
X140461470Y-123288550D02*
G75*
G02*
X141182830Y-123288550I360680J0D01*
G01*
X138382730Y-123288550D02*
G75*
G02*
X137661370Y-123288550I-360680J0D01*
G01*
X137661370Y-123288550D02*
G75*
G02*
X138382730Y-123288550I360680J0D01*
G01*
X138382730Y-126088650D02*
G75*
G02*
X137661370Y-126088650I-360680J0D01*
G01*
X137661370Y-126088650D02*
G75*
G02*
X138382730Y-126088650I360680J0D01*
G01*
X141672110Y-126938610D02*
X141672110Y-122438590D01*
X137172090Y-126938610D02*
X141672110Y-126938610D01*
X137172090Y-126938610D02*
X137172090Y-122438590D01*
X137172090Y-122438590D02*
X141672110Y-122438590D01*
%TO.C,SW1*%
X158378120Y-124561600D02*
G75*
G02*
X156534080Y-124561600I-922020J0D01*
G01*
X156534080Y-124561600D02*
G75*
G02*
X158378120Y-124561600I922020J0D01*
G01*
X156416730Y-123161550D02*
G75*
G02*
X155695370Y-123161550I-360680J0D01*
G01*
X155695370Y-123161550D02*
G75*
G02*
X156416730Y-123161550I360680J0D01*
G01*
X156416730Y-125961640D02*
G75*
G02*
X155695370Y-125961640I-360680J0D01*
G01*
X155695370Y-125961640D02*
G75*
G02*
X156416730Y-125961640I360680J0D01*
G01*
X159216830Y-125961640D02*
G75*
G02*
X158495470Y-125961640I-360680J0D01*
G01*
X158495470Y-125961640D02*
G75*
G02*
X159216830Y-125961640I360680J0D01*
G01*
X159216830Y-123161550D02*
G75*
G02*
X158495470Y-123161550I-360680J0D01*
G01*
X158495470Y-123161550D02*
G75*
G02*
X159216830Y-123161550I360680J0D01*
G01*
X155206090Y-126811610D02*
X155206090Y-122311590D01*
X155206090Y-122311590D02*
X159706110Y-122311590D01*
X159706110Y-126811610D02*
X159706110Y-122311590D01*
X155206090Y-126811610D02*
X159706110Y-126811610D01*
D12*
%TO.C,R9*%
X157218230Y-119552840D02*
X157218230Y-118120040D01*
X157218230Y-119552840D02*
X159980450Y-119552840D01*
X159980450Y-119552840D02*
X159980450Y-118120040D01*
X157218230Y-118120040D02*
X159980450Y-118120040D01*
%TO.C,R8*%
X139846970Y-119954160D02*
X139846970Y-118521360D01*
X137084750Y-118521360D02*
X139846970Y-118521360D01*
X137084750Y-119954160D02*
X137084750Y-118521360D01*
X137084750Y-119954160D02*
X139846970Y-119954160D01*
%TO.C,R7*%
X147066100Y-105603600D02*
X147066100Y-104403600D01*
X147066100Y-104403600D02*
X149066100Y-104403600D01*
X149066100Y-105603600D02*
X149066100Y-104403600D01*
X147066100Y-105603600D02*
X149066100Y-105603600D01*
%TO.C,R6*%
X147712100Y-118830600D02*
X148912100Y-118830600D01*
X147712100Y-118830600D02*
X147712100Y-116830600D01*
X147712100Y-116830600D02*
X148912100Y-116830600D01*
X148912100Y-118830600D02*
X148912100Y-116830600D01*
%TO.C,R5*%
X146188100Y-116830600D02*
X147388100Y-116830600D01*
X147388100Y-118830600D02*
X147388100Y-116830600D01*
X146188100Y-118830600D02*
X147388100Y-118830600D01*
X146188100Y-118830600D02*
X146188100Y-116830600D01*
%TO.C,R4*%
X138060100Y-117433600D02*
X139260100Y-117433600D01*
X138060100Y-117433600D02*
X138060100Y-115433600D01*
X138060100Y-115433600D02*
X139260100Y-115433600D01*
X139260100Y-117433600D02*
X139260100Y-115433600D01*
%TO.C,R3*%
X154178100Y-119954600D02*
X154178100Y-118754600D01*
X154178100Y-118754600D02*
X156178100Y-118754600D01*
X156178100Y-119954600D02*
X156178100Y-118754600D01*
X154178100Y-119954600D02*
X156178100Y-119954600D01*
%TO.C,R2*%
X154178100Y-117922600D02*
X154178100Y-116722600D01*
X154178100Y-116722600D02*
X156178100Y-116722600D01*
X156178100Y-117922600D02*
X156178100Y-116722600D01*
X154178100Y-117922600D02*
X156178100Y-117922600D01*
%TO.C,R1*%
X140835100Y-102809600D02*
X140835100Y-101609600D01*
X140835100Y-101609600D02*
X142835100Y-101609600D01*
X142835100Y-102809600D02*
X142835100Y-101609600D01*
X140835100Y-102809600D02*
X142835100Y-102809600D01*
D14*
%TO.C,LED1*%
X141326700Y-100863400D02*
X141326700Y-100279200D01*
X141326700Y-100863400D02*
X141326700Y-100584000D01*
X141326700Y-100584000D02*
X141580700Y-100838000D01*
X141326700Y-100584000D02*
X141580700Y-100330000D01*
X141580700Y-100838000D02*
X141580700Y-100330000D01*
D12*
X140097990Y-101269800D02*
X142860210Y-101269800D01*
X140097990Y-101269800D02*
X140097990Y-99837000D01*
X140097990Y-99837000D02*
X142860210Y-99837000D01*
X142860210Y-101269800D02*
X142860210Y-99837000D01*
D15*
%TO.C,J1*%
X145439110Y-121952700D02*
X145439110Y-121793570D01*
X146082460Y-122314950D02*
X147189120Y-122314950D01*
X147189120Y-122314950D02*
X147189120Y-121793590D01*
X149686010Y-122312820D02*
X149686010Y-121792600D01*
X151436020Y-121952090D02*
X151436020Y-121793590D01*
X149686010Y-122312820D02*
X150796520Y-122312820D01*
X152759080Y-125028790D02*
X152759080Y-123210990D01*
X144119120Y-125028790D02*
X144119120Y-123210990D01*
D12*
%TO.C,C18*%
X137679100Y-84945600D02*
X138879100Y-84945600D01*
X138879100Y-86945600D02*
X138879100Y-84945600D01*
X137679100Y-86945600D02*
X138879100Y-86945600D01*
X137679100Y-86945600D02*
X137679100Y-84945600D01*
%TO.C,C17*%
X142735240Y-117943820D02*
X142735240Y-116677560D01*
X140156790Y-116677560D02*
X142735240Y-116677560D01*
X140156790Y-117943820D02*
X140156790Y-116677560D01*
X140156790Y-117943820D02*
X142735240Y-117943820D01*
%TO.C,C16*%
X145299100Y-101471600D02*
X146499100Y-101471600D01*
X146499100Y-103471600D02*
X146499100Y-101471600D01*
X145299100Y-103471600D02*
X146499100Y-103471600D01*
X145299100Y-103471600D02*
X145299100Y-101471600D01*
%TO.C,C15*%
X149336100Y-104403600D02*
X151336100Y-104403600D01*
X149336100Y-105603600D02*
X149336100Y-104403600D01*
X149336100Y-105603600D02*
X151336100Y-105603600D01*
X151336100Y-105603600D02*
X151336100Y-104403600D01*
%TO.C,C14*%
X144664100Y-116830600D02*
X145864100Y-116830600D01*
X145864100Y-118830600D02*
X145864100Y-116830600D01*
X144664100Y-118830600D02*
X145864100Y-118830600D01*
X144664100Y-118830600D02*
X144664100Y-116830600D01*
%TO.C,C13*%
X149236100Y-118830600D02*
X150436100Y-118830600D01*
X149236100Y-118830600D02*
X149236100Y-116830600D01*
X149236100Y-116830600D02*
X150436100Y-116830600D01*
X150436100Y-118830600D02*
X150436100Y-116830600D01*
%TO.C,C12*%
X151960100Y-118830600D02*
X151960100Y-116830600D01*
X150760100Y-116830600D02*
X151960100Y-116830600D01*
X150760100Y-118830600D02*
X150760100Y-116830600D01*
X150760100Y-118830600D02*
X151960100Y-118830600D01*
%TO.C,C9*%
X159853100Y-117287600D02*
X159853100Y-116087600D01*
X157853100Y-117287600D02*
X159853100Y-117287600D01*
X157853100Y-117287600D02*
X157853100Y-116087600D01*
X157853100Y-116087600D02*
X159853100Y-116087600D01*
%TO.C,C8*%
X145299100Y-104011600D02*
X146499100Y-104011600D01*
X146499100Y-106011600D02*
X146499100Y-104011600D01*
X145299100Y-106011600D02*
X146499100Y-106011600D01*
X145299100Y-106011600D02*
X145299100Y-104011600D01*
%TO.C,C7*%
X143140100Y-116830600D02*
X144340100Y-116830600D01*
X144340100Y-118830600D02*
X144340100Y-116830600D01*
X143140100Y-118830600D02*
X144340100Y-118830600D01*
X143140100Y-118830600D02*
X143140100Y-116830600D01*
%TO.C,C4*%
X152284100Y-118822600D02*
X153484100Y-118822600D01*
X152284100Y-118822600D02*
X152284100Y-116822600D01*
X152284100Y-116822600D02*
X153484100Y-116822600D01*
X153484100Y-118822600D02*
X153484100Y-116822600D01*
%TO.C,C3*%
X143775100Y-104011600D02*
X144975100Y-104011600D01*
X144975100Y-106011600D02*
X144975100Y-104011600D01*
X143775100Y-106011600D02*
X144975100Y-106011600D01*
X143775100Y-106011600D02*
X143775100Y-104011600D01*
%TO.C,C2*%
X142141890Y-105306900D02*
X142141890Y-103433550D01*
X138743250Y-103433550D02*
X142141890Y-103433550D01*
X138743250Y-105306900D02*
X138743250Y-103433550D01*
X138743250Y-105306900D02*
X142141890Y-105306900D01*
%TO.C,C1*%
X140172970Y-114923380D02*
X142751410Y-114923380D01*
X142751410Y-116189640D02*
X142751410Y-114923380D01*
X140172970Y-116189640D02*
X142751410Y-116189640D01*
X140172970Y-116189640D02*
X140172970Y-114923380D01*
%TD*%
M02*
