%TF.GenerationSoftware,KiCad,Pcbnew,9.0.8+dfsg-1*%
%TF.CreationDate,2026-08-19T01:32:44+05:30*%
%TF.ProjectId,hey,6865792e-6b69-4636-9164-5f7063625858,rev?*%
%TF.SameCoordinates,Original*%
%TF.FileFunction,Soldermask,Top*%
%TF.FilePolarity,Negative*%
%FSLAX46Y46*%
G04 Gerber Fmt 4.6, Leading zero omitted, Abs format (unit mm)*
G04 Created by KiCad (PCBNEW 9.0.8+dfsg-1) date 2026-08-19 01:32:44*
%MOMM*%
%LPD*%
G01*
G04 APERTURE LIST*
G04 Aperture macros list*
%AMRoundRect*
0 Rectangle with rounded corners*
0 $1 Rounding radius*
0 $2 $3 $4 $5 $6 $7 $8 $9 X,Y pos of 4 corners*
0 Add a 4 corners polygon primitive as box body*
4,1,4,$2,$3,$4,$5,$6,$7,$8,$9,$2,$3,0*
0 Add four circle primitives for the rounded corners*
1,1,$1+$1,$2,$3*
1,1,$1+$1,$4,$5*
1,1,$1+$1,$6,$7*
1,1,$1+$1,$8,$9*
0 Add four rect primitives between the rounded corners*
20,1,$1+$1,$2,$3,$4,$5,0*
20,1,$1+$1,$4,$5,$6,$7,0*
20,1,$1+$1,$6,$7,$8,$9,0*
20,1,$1+$1,$8,$9,$2,$3,0*%
G04 Aperture macros list end*
%ADD10RoundRect,0.101600X-1.400000X-0.550000X1.400000X-0.550000X1.400000X0.550000X-1.400000X0.550000X0*%
%ADD11RoundRect,0.101600X-1.300000X-0.550000X1.300000X-0.550000X1.300000X0.550000X-1.300000X0.550000X0*%
%ADD12RoundRect,0.101600X1.300000X0.550000X-1.300000X0.550000X-1.300000X-0.550000X1.300000X-0.550000X0*%
%ADD13RoundRect,0.101600X0.700000X0.575000X-0.700000X0.575000X-0.700000X-0.575000X0.700000X-0.575000X0*%
%ADD14RoundRect,0.101600X1.550000X1.550000X-1.550000X1.550000X-1.550000X-1.550000X1.550000X-1.550000X0*%
%ADD15RoundRect,0.050400X0.151200X0.471200X-0.151200X0.471200X-0.151200X-0.471200X0.151200X-0.471200X0*%
%ADD16RoundRect,0.050400X0.471200X0.151200X-0.471200X0.151200X-0.471200X-0.151200X0.471200X-0.151200X0*%
%ADD17RoundRect,0.097900X-0.293700X0.808700X-0.293700X-0.808700X0.293700X-0.808700X0.293700X0.808700X0*%
%ADD18RoundRect,0.101600X1.625000X0.650000X-1.625000X0.650000X-1.625000X-0.650000X1.625000X-0.650000X0*%
%ADD19RoundRect,0.101600X0.475000X-0.650000X0.475000X0.650000X-0.475000X0.650000X-0.475000X-0.650000X0*%
%ADD20RoundRect,0.101600X0.450010X-0.700000X0.450010X0.700000X-0.450010X0.700000X-0.450010X-0.700000X0*%
%ADD21RoundRect,0.101600X-0.450010X0.700000X-0.450010X-0.700000X0.450010X-0.700000X0.450010X0.700000X0*%
%ADD22RoundRect,0.101600X-0.405000X-0.450000X0.405000X-0.450000X0.405000X0.450000X-0.405000X0.450000X0*%
%ADD23RoundRect,0.101600X0.405000X0.450000X-0.405000X0.450000X-0.405000X-0.450000X0.405000X-0.450000X0*%
%ADD24RoundRect,0.101600X-0.250000X-0.300000X0.250000X-0.300000X0.250000X0.300000X-0.250000X0.300000X0*%
%ADD25RoundRect,0.101600X0.300000X-0.250000X0.300000X0.250000X-0.300000X0.250000X-0.300000X-0.250000X0*%
%ADD26RoundRect,0.101600X-0.300000X0.250000X-0.300000X-0.250000X0.300000X-0.250000X0.300000X0.250000X0*%
%ADD27RoundRect,0.101600X-0.381000X0.381000X-0.381000X-0.381000X0.381000X-0.381000X0.381000X0.381000X0*%
%ADD28RoundRect,0.101600X-0.140005X-0.650000X0.140005X-0.650000X0.140005X0.650000X-0.140005X0.650000X0*%
%ADD29RoundRect,0.101600X-0.250000X-0.650000X0.250000X-0.650000X0.250000X0.650000X-0.250000X0.650000X0*%
%ADD30C,0.953210*%
%ADD31O,1.403200X2.003200*%
%ADD32O,1.303200X2.203200*%
%ADD33RoundRect,0.101600X-0.250000X0.250000X-0.250000X-0.250000X0.250000X-0.250000X0.250000X0.250000X0*%
%ADD34RoundRect,0.101600X0.381000X0.381000X-0.381000X0.381000X-0.381000X-0.381000X0.381000X-0.381000X0*%
%ADD35RoundRect,0.101600X0.250000X0.250000X-0.250000X0.250000X-0.250000X-0.250000X0.250000X-0.250000X0*%
%ADD36RoundRect,0.101600X0.250000X-0.250000X0.250000X0.250000X-0.250000X0.250000X-0.250000X-0.250000X0*%
%ADD37RoundRect,0.101600X-0.570000X0.635000X-0.570000X-0.635000X0.570000X-0.635000X0.570000X0.635000X0*%
%ADD38RoundRect,0.101600X-0.381000X-0.381000X0.381000X-0.381000X0.381000X0.381000X-0.381000X0.381000X0*%
%ADD39RoundRect,0.431800X-0.431800X-0.431800X0.431800X-0.431800X0.431800X0.431800X-0.431800X0.431800X0*%
G04 APERTURE END LIST*
D10*
%TO.C,U4*%
X141093100Y-83144600D03*
D11*
X140993100Y-85144600D03*
X140993100Y-87144600D03*
X140993100Y-89144600D03*
X140993100Y-91144600D03*
X140993100Y-93144600D03*
X140993100Y-95144600D03*
X140993100Y-97144600D03*
D12*
X156393100Y-97144600D03*
X156393100Y-95144600D03*
X156393100Y-93144600D03*
X156393100Y-91144600D03*
X156393100Y-89144600D03*
X156393100Y-87144600D03*
X156393100Y-85144600D03*
X156393100Y-83144600D03*
%TD*%
D13*
%TO.C,X1*%
X150131100Y-103098600D03*
X147931100Y-103098600D03*
X147931100Y-101498600D03*
X150131100Y-101498600D03*
%TD*%
D14*
%TO.C,U3*%
X148820100Y-110464600D03*
D15*
X151420100Y-107029600D03*
X151020100Y-107029600D03*
X150620100Y-107029600D03*
X150220100Y-107029600D03*
X149820100Y-107029600D03*
X149420100Y-107029600D03*
X149020100Y-107029600D03*
X148620100Y-107029600D03*
X148220100Y-107029600D03*
X147820100Y-107029600D03*
X147420100Y-107029600D03*
X147020100Y-107029600D03*
X146620100Y-107029600D03*
X146220100Y-107029600D03*
X146220100Y-113899600D03*
X146620100Y-113899600D03*
X147020100Y-113899600D03*
X147420100Y-113899600D03*
X147820100Y-113899600D03*
X148220100Y-113899600D03*
X148620100Y-113899600D03*
X149020100Y-113899600D03*
X149420100Y-113899600D03*
X149820100Y-113899600D03*
X150220100Y-113899600D03*
X150620100Y-113899600D03*
X151020100Y-113899600D03*
X151420100Y-113899600D03*
D16*
X152255100Y-113064600D03*
X152255100Y-112664600D03*
X152255100Y-112264600D03*
X152255100Y-111864600D03*
X152255100Y-111464600D03*
X152255100Y-111064600D03*
X152255100Y-110664600D03*
X152255100Y-110264600D03*
X152255100Y-109864600D03*
X152255100Y-109464600D03*
X152255100Y-109064600D03*
X152255100Y-108664600D03*
X152255100Y-108264600D03*
X152255100Y-107864600D03*
X145385100Y-107864600D03*
X145385100Y-108264600D03*
X145385100Y-108664600D03*
X145385100Y-109064600D03*
X145385100Y-109464600D03*
X145385100Y-109864600D03*
X145385100Y-110264600D03*
X145385100Y-110664600D03*
X145385100Y-111064600D03*
X145385100Y-111464600D03*
X145385100Y-111864600D03*
X145385100Y-112264600D03*
X145385100Y-112664600D03*
X145385100Y-113064600D03*
%TD*%
D17*
%TO.C,U2*%
X158853100Y-106986600D03*
X157583100Y-106986600D03*
X156313100Y-106986600D03*
X155043100Y-106986600D03*
X155043100Y-114196600D03*
X156313100Y-114196600D03*
X157583100Y-114196600D03*
X158853100Y-114196600D03*
%TD*%
D18*
%TO.C,U1*%
X140565100Y-106654600D03*
D19*
X142855100Y-113354600D03*
X140565100Y-113354600D03*
X138275100Y-113354600D03*
%TD*%
D20*
%TO.C,SW2*%
X140922100Y-121288610D03*
X140922100Y-128088600D03*
X137922100Y-121288610D03*
X137922100Y-128088600D03*
%TD*%
D21*
%TO.C,SW1*%
X155956100Y-127961590D03*
X155956100Y-121161600D03*
X158956100Y-127961590D03*
X158956100Y-121161600D03*
%TD*%
D22*
%TO.C,R9*%
X157904100Y-118846600D03*
X159294100Y-118846600D03*
%TD*%
D23*
%TO.C,R8*%
X139161100Y-119227600D03*
X137771100Y-119227600D03*
%TD*%
D24*
%TO.C,R7*%
X148566100Y-105003600D03*
X147566100Y-105003600D03*
%TD*%
D25*
%TO.C,R6*%
X148312100Y-117330600D03*
X148312100Y-118330600D03*
%TD*%
D26*
%TO.C,R5*%
X146788100Y-118330600D03*
X146788100Y-117330600D03*
%TD*%
D25*
%TO.C,R4*%
X138660100Y-115933600D03*
X138660100Y-116933600D03*
%TD*%
D24*
%TO.C,R3*%
X155678100Y-119354600D03*
X154678100Y-119354600D03*
%TD*%
%TO.C,R2*%
X155678100Y-117322600D03*
X154678100Y-117322600D03*
%TD*%
%TO.C,R1*%
X142335100Y-102209600D03*
X141335100Y-102209600D03*
%TD*%
D27*
%TO.C,LED1*%
X142216100Y-100558600D03*
X140742100Y-100558600D03*
%TD*%
D28*
%TO.C,J1*%
X150189160Y-120912470D03*
X149688780Y-120911480D03*
X149189160Y-120912470D03*
X148689040Y-120912440D03*
X148189160Y-120912470D03*
X147689040Y-120912440D03*
X147189170Y-120912470D03*
X146689040Y-120911480D03*
D29*
X146039110Y-120912420D03*
X145239110Y-120912440D03*
X151639090Y-120912440D03*
X150839100Y-120912390D03*
D30*
X145549090Y-122589710D03*
X151329110Y-122589710D03*
D31*
X144119120Y-126179720D03*
X152759080Y-126179720D03*
D32*
X152759080Y-121979810D03*
X144119120Y-121979940D03*
%TD*%
D33*
%TO.C,C18*%
X138279100Y-86445600D03*
X138279100Y-85445600D03*
%TD*%
D34*
%TO.C,C17*%
X140787100Y-117322600D03*
X142121100Y-117322600D03*
%TD*%
D33*
%TO.C,C16*%
X145899100Y-102971600D03*
X145899100Y-101971600D03*
%TD*%
D35*
%TO.C,C15*%
X150836100Y-105003600D03*
X149836100Y-105003600D03*
%TD*%
D33*
%TO.C,C14*%
X145264100Y-118330600D03*
X145264100Y-117330600D03*
%TD*%
D36*
%TO.C,C13*%
X149836100Y-117330600D03*
X149836100Y-118330600D03*
%TD*%
%TO.C,C12*%
X151360100Y-118330600D03*
X151360100Y-117330600D03*
%TD*%
D35*
%TO.C,C9*%
X158353100Y-116687600D03*
X159353100Y-116687600D03*
%TD*%
D33*
%TO.C,C8*%
X145899100Y-105511600D03*
X145899100Y-104511600D03*
%TD*%
%TO.C,C7*%
X143740100Y-118330600D03*
X143740100Y-117330600D03*
%TD*%
D36*
%TO.C,C4*%
X152884100Y-117322600D03*
X152884100Y-118322600D03*
%TD*%
D33*
%TO.C,C3*%
X144375100Y-105511600D03*
X144375100Y-104511600D03*
%TD*%
D37*
%TO.C,C2*%
X141290100Y-104368600D03*
X139586100Y-104368600D03*
%TD*%
D38*
%TO.C,C1*%
X140787100Y-115544600D03*
X142121100Y-115544600D03*
%TD*%
D39*
%TO.C,*%
X159488100Y-101828600D03*
%TD*%
%TO.C,*%
X157583100Y-101828600D03*
%TD*%
%TO.C,*%
X155551100Y-101828600D03*
%TD*%
%TO.C,*%
X153519100Y-101828600D03*
%TD*%
M02*
